<svg width="178" height="55" viewBox="0 0 178 55" fill="none" xmlns="http://www.w3.org/2000/svg">
<path d="M0 55C7.87889 34.3652 49.942 6.90628 79.9326 2.03191C112.338 -3.32989 131.018 1.21952 169.142 24.129C168.634 20.8795 167.998 18.2798 167.744 15.8426C167.363 13.0805 166.982 10.1559 167.109 7.39371C167.109 6.58132 168.252 5.11901 169.015 4.95653C169.777 4.79405 171.048 5.9314 171.302 6.7438C173.59 14.5428 175.623 22.3418 177.783 30.3032C178.419 32.9029 177.656 34.8526 175.496 35.665C167.236 38.2647 158.976 41.0268 150.589 43.464C148.682 43.9514 146.395 43.3015 143.853 43.3015C145.887 36.3149 150.461 37.1273 153.765 35.3401C157.197 33.3903 160.882 32.253 165.33 30.3032C154.782 21.2044 144.107 15.5177 132.797 11.9431C91.3698 -1.38014 53.2461 9.66842 18.0452 39.2396C13.4704 43.139 9.27679 47.6885 4.82903 51.7504C3.43115 52.5628 2.16035 53.3752 0 55Z" fill="#ABC4FF"/>
</svg>
