<svg width="24" height="51" viewBox="0 0 24 51" fill="none" xmlns="http://www.w3.org/2000/svg">
<g clip-path="url(#clip0_55_494)">
<path d="M9.17053 38.6103C9.17053 37.5115 9.17053 36.3027 9.17053 35.2039C9.27626 25.5339 9.48772 15.754 9.59345 6.08405C9.59345 4.98519 9.59345 3.99622 9.69918 2.89736C9.8049 1.46884 10.1221 -0.28934 11.9195 0.040318C12.6596 0.150204 13.5054 1.7985 13.6111 2.78747C14.034 10.919 14.3512 18.9407 14.6684 27.0723C14.7741 28.9404 14.6684 30.8084 15.62 32.7864C16.8887 30.5886 17.946 28.281 19.3204 26.1932C19.9548 25.2042 21.5407 24.1054 22.4923 24.3251C24.3954 24.7647 24.184 26.9624 23.5496 28.281C20.8006 34.8742 18.0517 41.5773 14.7741 47.9507C12.6596 52.0164 9.48772 52.0164 7.37316 47.9507C4.51849 42.5662 2.40392 36.7423 0.0779016 31.1381C-0.239283 30.4788 0.500813 29.3799 0.71227 28.5008C1.5581 28.8305 2.82684 28.8305 3.24975 29.4898C4.30703 30.8084 4.94141 32.5666 5.78723 34.105C6.63306 35.7533 7.47888 37.4016 8.3247 38.94C8.53616 38.7202 8.85335 38.6103 9.17053 38.6103Z" fill="#ABC4FF"/>
</g>
<defs>
<clipPath id="clip0_55_494">
<rect width="24" height="51" fill="white"/>
</clipPath>
</defs>
</svg>
