<svg width="178" height="55" viewBox="0 0 178 55" fill="none" xmlns="http://www.w3.org/2000/svg">
<path d="M0 4.77259e-08C7.87889 20.6348 49.942 48.0937 79.9326 52.9681C112.338 58.3299 131.018 53.7805 169.142 30.871C168.634 34.1205 167.998 36.7202 167.744 39.1574C167.363 41.9195 166.982 44.8441 167.109 47.6063C167.109 48.4187 168.252 49.881 169.015 50.0435C169.777 50.2059 171.048 49.0686 171.302 48.2562C173.59 40.4572 175.623 32.6582 177.783 24.6968C178.419 22.0971 177.656 20.1474 175.496 19.335C167.236 16.7353 158.976 13.9732 150.589 11.536C148.682 11.0486 146.395 11.6985 143.853 11.6985C145.887 18.6851 150.461 17.8727 153.765 19.6599C157.197 21.6097 160.882 22.747 165.33 24.6968C154.782 33.7956 144.107 39.4823 132.797 43.0569C91.3698 56.3801 53.2461 45.3316 18.0452 15.7604C13.4704 11.861 9.27679 7.31155 4.82903 3.24958C3.43115 2.43718 2.16035 1.62479 0 4.77259e-08Z" fill="#ABC4FF"/>
</svg>
