<svg width="30" height="22" viewBox="0 0 30 22" fill="none" xmlns="http://www.w3.org/2000/svg">
<path fill-rule="evenodd" clip-rule="evenodd" d="M30 11C30 10.2076 29.3501 9.56522 28.5484 9.56522H1.45161C0.649908 9.56522 0 10.2076 0 11C0 11.7924 0.649908 12.4348 1.45161 12.4348H28.5484C29.3501 12.4348 30 11.7924 30 11Z" fill="#373737"/>
<path fill-rule="evenodd" clip-rule="evenodd" d="M30 1.43478C30 0.642374 29.3501 0 28.5484 0H1.45161C0.649908 0 0 0.642374 0 1.43478C0 2.22719 0.649908 2.86957 1.45161 2.86957H28.5484C29.3501 2.86957 30 2.22719 30 1.43478Z" fill="#373737"/>
<path fill-rule="evenodd" clip-rule="evenodd" d="M30 20.5652C30 19.7728 29.3501 19.1304 28.5484 19.1304H1.45161C0.649908 19.1304 0 19.7728 0 20.5652C0 21.3576 0.649908 22 1.45161 22H28.5484C29.3501 22 30 21.3576 30 20.5652Z" fill="#373737"/>
</svg>
