<svg width="156" height="115" viewBox="0 0 156 115" fill="none" xmlns="http://www.w3.org/2000/svg">
<g clip-path="url(#clip0_4007_255)">
<path d="M74.2926 59.3547C83.6859 57.698 91.4443 56.3271 91.5334 56.3082L91.6954 56.2739L82.8271 45.742C77.9496 39.9495 73.9589 35.1877 73.9589 35.1603C73.9589 35.1084 83.1161 9.93118 83.1676 9.84161C83.1848 9.81167 89.4166 20.5537 98.2738 35.8808C106.566 50.2305 113.402 62.0618 113.466 62.1726L113.582 62.3742L57.2137 62.367L74.2926 59.3547ZM40.4686 56.143C40.4686 56.1282 44.6472 48.8858 49.7545 40.0489L59.0405 23.9816L69.8621 14.9143C75.8141 9.92735 80.6998 5.841 80.7194 5.83355C80.739 5.8261 80.6608 6.02285 80.5454 6.27077C80.4302 6.5187 75.1424 17.8427 68.7947 31.4352L57.2534 56.149L48.861 56.1595C44.2452 56.1653 40.4686 56.1578 40.4686 56.143Z" fill="#373737"/>
<path d="M22.1541 105.084H17.9301L15.8424 99.1766H6.71462L4.70782 105.084H0.5L9.19076 81.876H13.5281L22.1541 105.084ZM14.8228 96.0369L11.6022 86.7797C11.5051 86.4776 11.4025 85.9921 11.2946 85.3232H11.2299C11.1328 85.9381 11.0249 86.4237 10.9063 86.7797L7.71803 96.0369H14.8228Z" fill="#373737"/>
<path d="M37.1727 90.0812L28.2231 102.154H37.1403V105.084H22.9633V103.675L32.1072 91.4407H23.8372V88.5114H37.1727V90.0812Z" fill="#373737"/>
<path d="M54.797 105.084H51.0424V102.462H50.9776C49.8879 104.469 48.194 105.472 45.8959 105.472C41.9794 105.472 40.0211 103.12 40.0211 98.4159V88.5114H43.7758V98.0275C43.7758 101.005 44.9248 102.494 47.2229 102.494C48.3343 102.494 49.2459 102.084 49.9581 101.264C50.6809 100.444 51.0424 99.3708 51.0424 98.0437V88.5114H54.797V105.084Z" fill="#373737"/>
<path d="M69.314 92.088C68.8609 91.732 68.2081 91.554 67.3558 91.554C66.2445 91.554 65.3166 92.0556 64.5721 93.059C63.8276 94.0625 63.4554 95.4273 63.4554 97.1536V105.084H59.7007V88.5114H63.4554V91.9262H63.5202C63.887 90.761 64.448 89.8546 65.2032 89.2073C65.9694 88.5491 66.8217 88.2201 67.7604 88.2201C68.4401 88.2201 68.9579 88.3226 69.314 88.5276V92.088Z" fill="#373737"/>
<path d="M85.7083 97.8172H74.4119C74.4551 99.3492 74.9245 100.531 75.82 101.361C76.7263 102.192 77.9669 102.608 79.5422 102.608C81.3116 102.608 82.9354 102.079 84.4136 101.022V104.048C82.9031 104.997 80.9071 105.472 78.4255 105.472C75.9871 105.472 74.0721 104.722 72.6803 103.223C71.2992 101.712 70.6087 99.592 70.6087 96.8623C70.6087 94.2837 71.3693 92.1851 72.8906 90.5668C74.4227 88.9376 76.3216 88.123 78.5873 88.123C80.8532 88.123 82.6064 88.8513 83.8471 90.3079C85.0879 91.7644 85.7083 93.7874 85.7083 96.3768V97.8172ZM82.0831 95.163C82.0723 93.8144 81.754 92.7678 81.1283 92.0233C80.5025 91.2681 79.6393 90.8904 78.5388 90.8904C77.4599 90.8904 76.5428 91.2843 75.7876 92.0718C75.0431 92.8595 74.5845 93.8898 74.4119 95.163H82.0831Z" fill="#373737"/>
<path d="M97.7653 104.161V100.196C98.1217 100.52 98.5419 100.811 99.0274 101.07C99.5236 101.329 100.047 101.55 100.598 101.734C101.148 101.906 101.698 102.041 102.248 102.138C102.798 102.235 103.306 102.284 103.77 102.284C105.388 102.284 106.591 102.014 107.379 101.475C108.177 100.935 108.576 100.153 108.576 99.128C108.576 98.5778 108.441 98.1031 108.171 97.7039C107.913 97.2938 107.546 96.9217 107.071 96.5872C106.596 96.2527 106.036 95.9344 105.388 95.6323C104.752 95.3194 104.066 94.9958 103.332 94.6613C102.545 94.2404 101.812 93.8143 101.132 93.3828C100.452 92.9512 99.8589 92.4765 99.351 91.9585C98.8548 91.4299 98.461 90.8365 98.1695 90.1784C97.8894 89.5202 97.7491 88.7488 97.7491 87.864C97.7491 86.7743 97.9921 85.8303 98.4775 85.0319C98.9737 84.2227 99.621 83.5591 100.419 83.0413C101.229 82.5125 102.146 82.1241 103.17 81.876C104.196 81.617 105.242 81.4875 106.31 81.4875C108.738 81.4875 110.507 81.7627 111.618 82.313V86.1162C110.302 85.1667 108.608 84.692 106.537 84.692C105.965 84.692 105.393 84.746 104.822 84.8538C104.26 84.9617 103.753 85.1397 103.3 85.3879C102.858 85.636 102.497 85.9543 102.216 86.3428C101.935 86.7311 101.795 87.2005 101.795 87.7507C101.795 88.2687 101.903 88.7164 102.119 89.094C102.335 89.4716 102.648 89.8169 103.057 90.1297C103.478 90.4427 103.985 90.7501 104.579 91.0522C105.183 91.3436 105.879 91.6619 106.666 92.0071C107.475 92.4279 108.237 92.8702 108.948 93.3342C109.672 93.7982 110.302 94.3106 110.841 94.8717C111.392 95.4327 111.824 96.0585 112.137 96.749C112.461 97.4288 112.623 98.2055 112.623 99.0795C112.623 100.256 112.385 101.248 111.91 102.057C111.435 102.867 110.794 103.524 109.985 104.032C109.186 104.539 108.263 104.906 107.217 105.132C106.17 105.359 105.065 105.472 103.899 105.472C103.511 105.472 103.03 105.44 102.459 105.375C101.897 105.321 101.32 105.235 100.727 105.116C100.134 105.008 99.5723 104.873 99.0439 104.712C98.5156 104.55 98.0886 104.367 97.7653 104.161Z" fill="#373737"/>
<path d="M126.459 105.472C124.787 105.472 123.271 105.186 121.912 104.614C120.552 104.043 119.393 103.244 118.433 102.219C117.472 101.183 116.728 99.9481 116.199 98.5131C115.67 97.078 115.406 95.492 115.406 93.755C115.406 91.8992 115.67 90.2161 116.199 88.7056C116.738 87.1951 117.499 85.9057 118.48 84.8376C119.474 83.7695 120.677 82.9442 122.09 82.3615C123.503 81.7788 125.084 81.4875 126.832 81.4875C128.45 81.4875 129.928 81.7735 131.266 82.3453C132.604 82.9172 133.747 83.7209 134.697 84.7567C135.646 85.7817 136.38 87.0117 136.898 88.4467C137.426 89.8816 137.691 91.4622 137.691 93.1885C137.691 95.4759 137.308 97.4827 136.542 99.2089C135.776 100.924 134.697 102.306 133.305 103.352L140.038 108.207H134.179L130.036 104.987C129.485 105.138 128.914 105.257 128.32 105.342C127.727 105.429 127.107 105.472 126.459 105.472ZM126.638 84.87C125.58 84.87 124.609 85.0804 123.724 85.5012C122.851 85.9112 122.095 86.4992 121.458 87.2653C120.822 88.0205 120.326 88.9268 119.97 89.9841C119.625 91.0415 119.451 92.2174 119.451 93.5122C119.451 94.7961 119.619 95.9668 119.953 97.0241C120.298 98.0814 120.779 98.9877 121.394 99.743C122.009 100.487 122.748 101.07 123.611 101.491C124.475 101.901 125.429 102.106 126.476 102.106C127.587 102.106 128.585 101.912 129.47 101.523C130.354 101.135 131.105 100.579 131.719 99.8563C132.345 99.1227 132.825 98.2272 133.16 97.1697C133.494 96.1124 133.662 94.9094 133.662 93.5608C133.662 92.1797 133.5 90.9498 133.176 89.8708C132.852 88.7919 132.388 87.8856 131.784 87.152C131.18 86.4075 130.441 85.841 129.566 85.4526C128.704 85.0643 127.727 84.87 126.638 84.87Z" fill="#373737"/>
<path d="M154.797 105.084H141.948V81.876H145.799V101.831H154.797V105.084Z" fill="#373737"/>
</g>
<defs>
<clipPath id="clip0_4007_255">
<rect width="155" height="115" fill="white" transform="translate(0.5)"/>
</clipPath>
</defs>
</svg>
