<svg width="156" height="115" viewBox="0 0 156 115" fill="none" xmlns="http://www.w3.org/2000/svg">
<path d="M103.268 36.5496L87.5883 41.6694L73.948 47.6897L70.1318 48.6972C69.1599 49.6217 68.1409 50.558 67.0387 51.506C65.8299 52.5488 64.704 53.4971 63.8387 54.1843C62.8788 54.9429 61.4568 56.365 60.7339 57.2655C59.6554 58.6165 58.8021 60.0504 58.4347 61.1527C57.7828 63.1438 58.1029 65.1584 59.3591 67.0192C60.9709 69.3894 64.1826 71.8069 67.9275 73.4545C69.8356 74.2957 73.0473 75.374 75.4648 75.9788C79.4822 76.9975 87.2568 78.0999 91.5352 78.266C92.3998 78.3015 93.5612 78.3015 93.6088 78.266C93.7039 78.2064 94.3676 76.9386 95.1378 75.3626C97.7686 69.9938 99.6647 64.957 100.696 60.6551C101.312 58.048 101.798 54.5755 102.118 50.4633C102.201 49.3137 102.237 45.4621 102.165 44.1583C102.058 42.0251 101.869 40.295 101.573 38.6003C101.525 38.3513 101.513 38.1261 101.537 38.1143C101.584 38.0788 101.727 38.0314 103.658 37.4742L103.267 36.55L103.268 36.5496ZM99.6889 38.6474C99.8308 38.6474 100.21 42.2856 100.305 44.5849C100.328 45.0708 100.316 45.3907 100.293 45.3907C100.199 45.3907 98.2904 44.265 96.9274 43.4117C95.7419 42.6651 93.4909 41.1717 93.1353 40.8873C93.016 40.8044 93.0281 40.7926 93.9999 40.4607C95.6475 39.9036 99.5582 38.6474 99.6889 38.6474ZM91.7013 41.2784C91.8078 41.2784 92.0804 41.4323 92.7321 41.8354C95.1733 43.3642 98.492 45.213 99.9139 45.8293C100.352 46.019 100.399 45.9478 99.3921 46.6352C97.2355 48.1047 94.5451 49.5505 91.2506 51.0082C90.6699 51.2689 90.1836 51.4703 90.1723 51.4703C90.1488 51.4703 90.2191 51.1742 90.3142 50.8186C91.1079 47.8675 91.5586 44.881 91.5828 42.4871C91.5941 41.3019 91.5941 41.3019 91.7013 41.2665C91.6772 41.2784 91.6893 41.2784 91.7013 41.2784ZM90.0537 41.9064C90.1247 41.9774 90.0771 44.6322 89.9827 45.3551C89.769 47.0854 89.4375 48.6971 88.8923 50.5105C88.7617 50.9487 88.6432 51.3163 88.6198 51.3399C88.5722 51.3991 86.9487 49.8111 86.4156 49.1949C85.4906 48.1282 84.768 47.0616 84.2348 46.0187C83.9622 45.4854 83.5356 44.4427 83.5711 44.407C83.7606 44.2767 90.0061 41.8592 90.0537 41.9064ZM82.3033 44.9522C82.3146 44.9522 82.3267 44.9522 82.3388 44.9639C82.3622 44.9876 82.4452 45.1774 82.5162 45.3906C82.8953 46.4217 83.7486 47.9386 84.4833 48.9105C85.2897 49.9772 86.3446 51.1147 87.2213 51.8614C87.506 52.0984 87.7665 52.3235 87.802 52.3591C87.873 52.4303 87.8964 52.4183 85.9648 53.1531C83.7252 54.0064 81.2839 54.8597 78.487 55.7603C77.8186 55.9758 77.1511 56.193 76.4842 56.4122C76.3774 56.4478 76.413 56.3885 76.7211 55.9027C78.1079 53.7338 80.2169 49.4793 81.4024 46.4691C81.604 45.9476 81.8049 45.4263 81.8411 45.3077C81.888 45.1417 81.9476 45.0825 82.1017 44.9995C82.1847 44.976 82.2678 44.9522 82.3033 44.9522ZM79.933 45.9358C79.9685 45.9596 79.3637 47.2276 78.7716 48.389C77.6218 50.6288 76.3656 52.8333 74.6827 55.5116C74.3983 55.9737 74.1258 56.4005 74.0902 56.4479C74.031 56.5309 74.0072 56.507 73.8176 56.1397C73.4147 55.3457 73.0828 54.3264 72.905 53.3902C72.7272 52.4657 72.7628 50.8541 72.9643 49.8586C73.1182 49.1239 73.1065 49.1357 73.462 48.9579C74.979 48.1876 79.8854 45.8884 79.933 45.9358ZM100.376 46.7655V47.2632C100.376 49.906 100.091 53.5324 99.6768 56.1754C99.6058 56.6375 99.5462 57.0166 99.5348 57.0286C99.5348 57.0286 99.1905 56.9339 98.788 56.8153C97.0105 56.2582 95.0782 55.4404 93.3362 54.4807C92.1869 53.8525 90.5158 52.8213 90.5634 52.7739C90.5747 52.7621 91.0731 52.5014 91.6531 52.1932C93.9765 50.9845 96.2041 49.6809 98.1364 48.3891C98.859 47.9032 99.9494 47.1211 100.186 46.9077L100.376 46.7655ZM70.9851 50.2732C71.0325 50.2732 71.0206 50.368 70.9495 50.7947C70.9021 51.103 70.8429 51.6718 70.8193 52.0627C70.7243 53.793 71.0089 55.073 71.8622 56.8269C72.0991 57.3129 72.2889 57.7158 72.2769 57.7276C72.1939 57.7988 64.3486 60.098 61.8834 60.7735C61.1487 60.9748 60.5088 61.1527 60.4611 61.1643C60.3784 61.1882 60.3665 61.1764 60.4019 60.9747C60.6745 59.2327 62.0019 56.9573 63.8506 55.0373C65.0832 53.7575 66.0669 53.0109 67.7497 52.0508C68.9585 51.3635 70.8192 50.3327 70.9614 50.2851C70.9615 50.2732 70.9733 50.2732 70.9851 50.2732ZM89.473 53.5797C89.4851 53.5679 89.769 53.7221 90.1126 53.9235C92.649 55.3931 96.1806 56.756 99.1905 57.4551L99.4631 57.5145L99.084 57.7276C97.5081 58.6046 92.3289 60.7615 87.0318 62.7407C86.2608 63.025 85.5027 63.3096 85.3607 63.3688C85.218 63.428 85.0881 63.4636 85.0881 63.4518C85.0881 63.4398 85.3011 63.025 85.5737 62.5155C87.0552 59.7424 88.5481 56.3648 89.3069 54.0182C89.402 53.7931 89.461 53.5917 89.473 53.5797ZM87.5883 54.1961C87.6004 54.2082 87.506 54.4568 87.3874 54.7412C86.356 57.2418 85.0051 59.9677 83.2751 63.0253C82.8364 63.8075 82.4687 64.4356 82.4566 64.4356C82.4452 64.4356 82.0896 64.2222 81.663 63.9615C79.1507 62.4208 76.9225 60.5246 75.4649 58.6877L75.2514 58.427L76.3298 58.1307C80.1935 57.076 83.476 55.9383 86.735 54.54C87.1972 54.3502 87.5769 54.1961 87.5883 54.1961ZM99.2977 58.2847C99.3091 58.5573 98.705 60.9987 98.2073 62.7643C97.7921 64.2457 97.4364 65.4072 96.7848 67.4574C96.5008 68.3583 96.2516 69.1047 96.2396 69.1047C96.2282 69.1047 96.1572 69.0929 96.0862 69.0694C92.566 68.4291 89.4134 67.5404 86.4511 66.3554C85.6212 66.0234 84.4365 65.4901 84.3648 65.4309C84.3413 65.407 85.0526 65.0753 85.9535 64.6842C91.3457 62.3258 96.9395 59.6475 98.859 58.498C99.084 58.3558 99.2622 58.2847 99.2977 58.2847ZM72.2651 59.2092C72.2888 59.2328 70.7837 61.4016 68.6741 64.3525C67.9393 65.3836 67.0861 66.5924 66.7662 67.0427C66.4462 67.4931 65.9604 68.2042 65.6878 68.6308L65.1898 69.4012L64.6565 68.9508C64.0283 68.4293 62.9381 67.3153 62.4522 66.699C61.433 65.4311 60.7457 64.0919 60.4731 62.8714C60.3427 62.3024 60.3427 62.0178 60.4611 61.9824C60.6388 61.9351 63.8031 61.1884 66.7661 60.5009C68.4134 60.1218 70.3213 59.6714 71.0087 59.5055C71.6961 59.3394 72.2533 59.2092 72.2651 59.2092ZM73.782 59.7899L74.1611 60.2165C75.8679 62.1246 77.6099 63.5351 79.7193 64.7673C80.0991 64.9808 80.3831 65.1703 80.3596 65.1824C80.2766 65.2415 73.0353 67.8129 69.6815 68.9744C67.7972 69.638 66.2446 70.1714 66.2329 70.1714C66.2211 70.1714 66.1144 70.1004 65.9957 70.0173L65.7825 69.8632L66.1261 69.3656C67.24 67.7538 68.6387 65.9881 71.6844 62.3142L73.782 59.7899ZM83.2396 66.5568C83.251 66.545 83.7727 66.7345 84.4123 66.9718C85.9535 67.5524 87.1737 67.9197 88.8093 68.3346C90.8239 68.8442 93.7394 69.342 95.458 69.4841C95.7185 69.5077 95.8605 69.5316 95.8136 69.5671C95.7306 69.6145 93.9885 70.1953 92.7086 70.5982C90.6699 71.2382 84.4478 73.0747 79.3757 74.5328C78.4394 74.8054 77.6336 75.0304 77.5862 75.0425C77.4679 75.0659 77.0766 74.9594 77.0766 74.9119C77.0766 74.8884 77.361 74.5207 77.7048 74.1182C79.4112 72.0794 81.1064 69.8041 82.5162 67.6472C82.9074 67.0545 83.2396 66.5686 83.2396 66.5568ZM81.1533 66.6162C81.1653 66.628 80.3241 67.9789 78.8547 70.3017C78.2264 71.2851 77.5269 72.3996 77.278 72.7907C77.041 73.1698 76.6854 73.7626 76.4841 74.0941L76.1403 74.6989L75.9627 74.6513C75.5359 74.5328 72.5376 73.4779 71.7435 73.1577C70.7598 72.7666 69.7407 72.2931 68.9821 71.8899C68.0341 71.3802 66.8491 70.6216 66.9438 70.5981C66.9675 70.5863 68.5912 70.1477 70.5464 69.6145C75.7373 68.204 78.6169 67.3864 80.5016 66.7938C80.8452 66.6872 81.1412 66.6042 81.1533 66.6162ZM95.9081 70.0765H95.9201C95.967 70.1952 94.0475 75.528 93.3482 77.2111C93.1942 77.5902 93.1353 77.6853 93.0522 77.6733C92.8506 77.6612 90.0658 77.2701 88.3706 77.0216C85.4196 76.5708 80.4661 75.7055 79.2217 75.4215L78.937 75.3626L80.7032 74.9594C84.4954 74.1061 86.3205 73.644 88.169 73.0747C90.5038 72.3641 92.8151 71.4746 95.1499 70.3847C95.5169 70.2187 95.825 70.0884 95.9081 70.0765Z" fill="#373737"/>
<path d="M87.1027 0.000607C86.8422 -0.0347516 82.6348 1.48217 79.9209 2.58419C76.2588 4.07762 73.4147 5.49983 71.6607 6.73209C71.0089 7.19446 70.1911 8.01209 70.0609 8.33203C70.0135 8.45058 69.9897 8.59277 69.9897 8.73496L71.5778 10.2401L75.3582 11.4489L84.3534 13.0607L94.6402 14.8266L94.7467 13.9377C94.7112 13.9377 94.6878 13.9259 94.6523 13.9259L93.3007 13.7125L93.0281 13.2266C91.6296 10.7615 90.0892 7.70394 89.1884 5.64181C88.4898 4.04187 87.8261 2.19328 87.4584 0.865879C87.2568 0.0600113 87.2334 0.0124114 87.1027 0.000607ZM86.9132 0.605202H86.9253C86.9366 0.616897 86.9842 0.948949 87.0318 1.33981C87.2327 2.99921 87.6004 4.59887 88.181 6.3292C88.6198 7.63288 88.6197 7.56182 88.1101 7.4077C86.9011 7.07594 81.4855 6.13968 77.5626 5.59454C76.9345 5.51153 76.4011 5.42862 76.4011 5.41682C76.3538 5.36944 79.2338 3.86421 80.5016 3.2718C82.1251 2.52501 86.581 0.664388 86.9132 0.605202ZM75.4885 5.91446L75.9509 6.06836C78.4628 6.92177 84.7793 8.13064 88.2641 8.41502C88.6552 8.45058 88.9868 8.48622 88.9988 8.48622C89.0102 8.49807 88.6787 8.67583 88.252 8.87722C86.5696 9.71864 84.7204 10.7497 83.4405 11.5438C83.0614 11.7807 82.7178 11.9704 82.6703 11.9704C82.6227 11.9704 82.3743 11.923 82.1137 11.8875L81.6395 11.8162L80.4548 10.6547C78.3684 8.62834 76.7331 7.06403 76.1049 6.47135L75.4885 5.91446ZM75.0146 6.28177L76.6856 8.36767C77.598 9.51724 78.5225 10.643 78.7241 10.8918C78.9257 11.1408 79.0911 11.3423 79.0797 11.3542C79.0322 11.3897 76.6621 10.9274 75.4057 10.6431C74.1139 10.3467 73.5806 10.2045 72.7866 9.95581L72.1347 9.74235V9.57638C72.1466 8.78231 73.154 7.59724 74.8605 6.38856L75.0146 6.28177ZM89.2125 9.1261C89.2593 9.1261 89.319 9.23273 89.461 9.55267C89.8642 10.4414 91.1206 12.8355 91.428 13.2976C91.5231 13.4519 91.6893 13.4637 90.0182 13.1911C86.001 12.5391 84.709 12.326 84.709 12.3023C84.709 12.2905 84.8276 12.2075 84.9816 12.1245C86.226 11.4372 87.4818 10.5602 88.5963 9.62387C88.8689 9.39869 89.1174 9.18538 89.1649 9.14974C89.1763 9.1261 89.2004 9.11432 89.2125 9.1261Z" fill="#373737"/>
<path d="M70.1435 8.16614C70.1435 8.16614 69.883 8.58106 70.1318 9.19738C70.286 9.57645 70.7363 10.0386 71.2458 10.5127C71.2458 10.5127 76.5196 15.656 77.1595 16.391C80.075 19.7566 81.3428 23.075 81.4614 27.6495C81.5323 30.5887 80.9751 33.1722 79.5887 36.1706C77.1239 41.551 71.9211 47.4885 63.8979 54.0778L65.0714 53.6866C65.8299 53.1176 66.8609 52.5135 69.2785 51.1861C74.8603 48.1283 81.1412 45.3196 88.8448 42.4279C99.9373 38.2562 118.176 33.3734 128.557 31.7856L129.636 31.6195L129.47 31.3588C128.523 29.8892 127.87 28.9767 127.088 28.005C124.813 25.1844 122.051 22.8972 118.674 21.001C114.028 18.4057 108.019 16.3791 100.412 14.874C98.9776 14.5895 95.825 14.0444 93.2652 13.6533C87.8375 12.8121 84.3293 12.2312 80.4661 11.5676C79.0797 11.3305 77.0053 10.975 75.6306 10.6788C74.9196 10.5246 73.5567 10.2047 72.4901 9.83733C71.6369 9.50532 70.4043 9.17345 70.1435 8.16614ZM73.2013 11.129C73.213 11.1173 73.4026 11.1882 73.6516 11.2712C74.1019 11.4251 74.6826 11.6029 75.3702 11.7927C75.8903 11.9357 76.4118 12.074 76.9345 12.2075C77.6456 12.3851 78.2378 12.551 78.2499 12.551C78.3329 12.6341 79.5298 16.4618 79.933 17.9313C80.087 18.4885 80.2056 18.9624 80.1935 18.9624C80.1814 18.9744 80.0515 18.7728 79.8975 18.5003C78.5104 16.0589 76.3182 13.5821 73.7819 11.591C73.4503 11.3542 73.2013 11.1408 73.2013 11.129ZM79.0322 12.7408C79.0911 12.7408 79.3523 12.7764 79.6718 12.8473C81.6864 13.2977 85.3011 13.9851 87.6124 14.3762C88.0036 14.4354 88.3117 14.5067 88.3117 14.5303C88.3117 14.554 88.169 14.6369 87.9915 14.7318C87.6004 14.9332 86.0244 15.8693 85.5027 16.2249C84.1873 17.1019 83.0025 18.05 82.1485 18.9032C81.8049 19.247 81.5089 19.5314 81.5089 19.5314C81.5089 19.5314 81.4379 19.33 81.3783 19.0809C80.9524 17.4336 80.0629 14.9922 79.2572 13.2739C79.1266 13.0015 79.0201 12.7525 79.0201 12.7289C79.0201 12.7526 79.0201 12.7408 79.0322 12.7408ZM89.2948 14.6962C89.3658 14.7198 89.4844 15.1228 89.7215 16.0116C90.1602 17.7301 90.3618 19.65 90.2908 21.4395C90.2667 21.9372 90.2432 22.3994 90.2191 22.4588L90.1836 22.5771L89.5674 22.3757C88.2996 21.9728 86.2374 21.3683 84.4719 20.8707C83.4646 20.598 82.6469 20.3492 82.6469 20.3255C82.6469 20.2543 84.1163 18.7848 84.7445 18.2279C85.9414 17.1729 89.1884 14.6606 89.2948 14.6962ZM90.1126 14.8146C90.1481 14.7792 95.0193 15.6204 97.2355 16.0471C98.8831 16.3671 101.277 16.8649 101.419 16.9242C101.49 16.9478 101.241 17.0901 100.447 17.4455C97.3186 18.856 94.9952 20.1239 92.6845 21.6647C92.0804 22.0676 91.5707 22.3994 91.5586 22.3994C91.5473 22.3994 91.5352 22.0558 91.5352 21.6409C91.5352 19.3893 91.0844 17.1138 90.2553 15.1939C90.1723 15.0043 90.1013 14.8266 90.1126 14.8146ZM102.711 17.3035C102.746 17.3389 102.592 18.299 102.45 18.8677C102.023 20.6336 100.874 23.2529 99.4638 25.7178C99.2147 26.1563 98.9896 26.5118 98.9655 26.5236C98.9421 26.5355 98.6219 26.3576 98.2542 26.1443C96.8799 25.3384 95.3153 24.58 93.6088 23.8688C93.1353 23.6674 92.72 23.5015 92.7079 23.478C92.6249 23.4067 96.4412 20.8824 98.4558 19.6736C100.056 18.7019 102.663 17.256 102.711 17.3035ZM103.611 17.4456C103.718 17.4456 105.875 18.0382 107.001 18.37C109.785 19.1997 112.986 20.3729 115.071 21.3209L115.937 21.7122L115.332 21.8543C110.236 23.0275 105.875 24.3787 101.667 26.0852C101.324 26.2274 101.016 26.3459 100.992 26.3459C100.969 26.3459 101.087 26.0733 101.241 25.7414C102.509 23.0513 103.327 20.2426 103.528 17.8485C103.54 17.6233 103.575 17.4456 103.611 17.4456ZM82.1372 22.3757C82.1727 22.3401 83.8196 22.7313 84.709 22.98C86.0599 23.3593 88.9278 24.3192 88.9278 24.3904C88.9278 24.4021 88.6077 24.6747 88.2286 25.0067C86.6761 26.2984 85.1825 27.6612 83.3929 29.3915C82.8598 29.9013 82.4098 30.3161 82.3863 30.3161C82.3622 30.3161 82.3508 30.2448 82.3622 30.15C82.6348 28.159 82.5759 25.5991 82.1961 23.0038C82.1606 22.6718 82.1251 22.3875 82.1372 22.3757ZM116.754 22.4114C116.778 22.4349 115.995 23.6674 115.498 24.3666C114.787 25.3858 113.744 26.7371 111.385 29.6998C110.141 31.264 108.743 33.0299 108.28 33.6225C107.806 34.215 107.415 34.7126 107.404 34.7126C107.392 34.7126 107.238 34.4994 107.072 34.2388C105.744 32.2477 104.156 30.5055 102.272 28.9412C101.916 28.6449 101.525 28.3249 101.395 28.2301C101.265 28.1353 101.158 28.0405 101.158 28.0287C101.158 27.9932 103.172 27.1279 104.701 26.5118C107.38 25.4214 111.03 24.1178 113.768 23.2764C115.202 22.8261 116.73 22.3875 116.754 22.4114ZM117.666 22.6483C117.714 22.6365 117.999 22.7787 118.342 22.98C121.222 24.6273 124.043 26.7487 126.271 28.9294C126.898 29.5457 128.451 31.1575 128.428 31.1693C128.428 31.1693 127.882 31.2167 127.243 31.264C122.253 31.6434 115.866 32.698 109.727 34.1793C109.312 34.274 108.944 34.357 108.921 34.357C108.897 34.357 109.36 33.8949 109.94 33.3379C113.543 29.8656 115.19 27.6731 117.133 23.7622C117.406 23.1816 117.643 22.6839 117.666 22.6483C117.655 22.6483 117.655 22.6483 117.666 22.6483ZM91.274 25.3505C91.4401 25.3858 92.9805 26.109 94.1419 26.6896C95.2088 27.2226 96.8089 28.0761 96.8919 28.1471C96.9033 28.159 96.3347 28.4553 95.6355 28.799C93.4072 29.913 91.4997 30.9677 89.5085 32.1765C88.9399 32.5202 88.4657 32.8048 88.4536 32.8048C88.4061 32.8048 88.4181 32.7571 88.7383 32.1765C89.8045 30.2331 90.6578 27.9102 91.1441 25.6466C91.1909 25.4688 91.2385 25.3505 91.274 25.3505ZM89.7335 25.6348C89.769 25.6704 89.3658 27.1279 89.1174 27.922C88.6311 29.4272 87.8133 31.3114 87.0197 32.7336C86.8302 33.0653 86.5455 33.5512 86.3915 33.8238L86.0954 34.2978L85.4317 33.658C84.6615 32.9113 84.0332 32.4491 83.2275 32.0342C82.9074 31.8685 82.6582 31.7261 82.6582 31.7025C82.6582 31.6077 84.6849 29.7708 86.2374 28.4435C87.3512 27.4835 89.6981 25.5992 89.7335 25.6348ZM99.1557 29.5101L99.7364 29.8893C101.063 30.7546 102.628 31.904 103.825 32.9113C104.5 33.4682 105.804 34.6416 106.064 34.9261L106.206 35.0803L105.246 35.3528C99.8188 36.8577 95.6234 38.1969 90.7288 39.9984C90.1836 40.1997 89.7215 40.3657 89.686 40.3657C89.615 40.3657 89.5554 40.4249 90.7764 39.299C93.9055 36.4194 96.6783 33.2431 98.7405 30.1499L99.1557 29.5101ZM96.6783 30.1264C96.7017 30.15 95.0782 32.4372 94.1064 33.729C92.945 35.2697 90.8828 37.8532 89.461 39.5359C88.8682 40.2353 88.3592 40.816 88.3351 40.8278C88.2996 40.8397 88.2875 40.6619 88.2875 40.3894C88.2875 38.9553 87.9205 37.4265 87.2802 36.1229C87.0076 35.5778 86.9601 35.4474 87.0197 35.3882C87.2447 35.1867 90.6933 33.2194 92.874 32.0462C94.3435 31.264 96.6428 30.1027 96.6783 30.1264ZM81.6985 33.8003C81.7339 33.8003 82.0065 33.9423 82.3146 34.1084C83.0735 34.5231 83.7486 34.9853 84.3534 35.4832C84.3768 35.5067 84.0687 35.7557 83.6655 36.0519C82.5397 36.8577 80.8331 38.1495 79.8379 38.9436C78.7951 39.7732 78.7596 39.7969 78.8781 39.6192C79.6604 38.4221 80.0508 37.7466 80.4661 36.8816C80.8331 36.1113 81.2008 35.1987 81.4614 34.4047C81.5565 34.061 81.675 33.8003 81.6985 33.8003ZM85.6922 36.9288C85.7519 36.9171 85.8228 37.0237 86.143 37.4978C86.8181 38.505 87.3398 39.8562 87.4705 40.9465L87.4939 41.1836L85.8704 41.8117C82.9663 42.9375 80.2886 44.0516 78.4749 44.881C77.9654 45.1181 77.0766 45.5447 76.496 45.8293C75.9152 46.1254 75.4412 46.3506 75.4412 46.3388C75.4412 46.327 75.8085 46.0544 76.2588 45.7224C79.8024 43.1509 82.8719 40.3301 85.1712 37.5097C85.4196 37.2133 85.6454 36.9407 85.6688 36.9289L85.6922 36.9288ZM83.8558 37.3793C83.9026 37.4267 82.5517 38.9554 81.6275 39.8916C79.3402 42.2264 77.0767 44.0516 74.2679 45.8293C73.9124 46.0544 73.5924 46.2558 73.5568 46.2796C73.4738 46.327 73.5804 46.2084 74.813 44.8692C75.5953 44.0278 76.1878 43.3167 76.8633 42.4398C77.3136 41.8592 77.3966 41.7762 78.0483 41.3138C79.7903 40.0576 83.8082 37.3318 83.8558 37.3793Z" fill="#373737"/>
<path d="M32.5362 86.4509C32.3177 86.4509 32.099 86.4722 31.8823 86.4722C27.4666 86.7072 24.4884 88.6508 22.747 92.4458C21.2578 95.878 21.4204 100.364 22.7638 103.817C24.3259 107.191 26.8502 108.972 31.0637 109.645C31.9552 109.791 32.553 110.281 34.2796 112.297L36.4041 114.786H40.2573L37.6952 112.202C36.2789 110.786 35.1333 109.553 35.1333 109.445C35.1333 109.337 35.6751 109.1 36.331 108.899C38.493 108.246 40.2883 106.575 41.5442 104.015C42.5607 101.96 42.7066 101.324 42.8522 98.7665C43.2334 91.1538 39.2198 86.3948 32.536 86.4488L32.5362 86.4509ZM35.9145 106.359C34.04 107.267 31.318 107.448 29.5413 106.796C27.7042 106.122 25.9255 104.213 25.1256 102.053C24.2362 99.6915 24.3632 95.3343 25.3797 93.3722C27.0147 90.248 29.1767 88.8112 32.3363 88.8112C37.0226 88.8112 39.6885 91.6813 40.0364 97.0756C40.3114 101.579 38.8033 104.957 35.9165 106.357L35.9145 106.359ZM102.477 92.9541C100.86 92.9541 99.6236 93.6079 98.7902 94.897L98.1364 95.9178V93.2643H95.3387V109.177H98.1342V104.091C98.1342 99.4395 98.1924 98.8957 98.842 97.6229C99.7378 95.878 101.279 95.0077 102.768 95.4237L103.768 95.7155V92.9576H102.477V92.9541ZM86.0436 92.8078C85.4956 92.8078 84.9142 92.881 84.3356 93.008C80.5925 93.9869 78.4827 97.569 78.6119 101.256C78.6119 104.343 79.2118 105.886 80.7011 107.504C83.7521 110.007 86.5121 110.208 90.2361 108.865C90.8715 108.593 91.5629 108.281 91.5629 108.281V105.778L90.2361 106.465C87.222 107.777 84.9518 107.777 83.1338 106.232C81.9739 105.05 81.4635 103.634 81.2278 102.018H92.5063V99.8725C92.5063 95.499 89.8734 92.7368 86.0415 92.8078H86.0436ZM81.4819 99.7852C81.4819 99.7852 81.8986 97.0571 83.444 95.9859C84.188 95.4613 85.0413 95.2072 85.8768 95.2072C86.7144 95.2072 87.5493 95.4777 88.2385 96.0051C89.6555 97.0941 89.8926 99.7646 89.8926 99.7646H81.4819V99.7852ZM14.0471 96.9152C11.0147 95.078 9.66915 93.7534 9.83368 92.1917C10.3043 87.8692 15.6447 88.4676 18.6022 90.1025L18.6232 87.1948C18.6232 87.1948 16.9882 86.4871 14.6449 86.4495C11.05 86.3948 8.7256 87.5739 7.63643 89.9733C6.03669 93.5142 7.45318 96.184 12.5728 99.1626C15.447 100.835 16.7174 102.287 16.7174 103.87C16.7174 107.14 12.7747 108.281 8.70705 106.229C7.86992 105.813 7.16168 105.465 7.12422 105.465C6.97833 106.392 7.05353 108.61 7.05353 108.61C7.05353 108.61 8.30328 109.135 10.1776 109.497C14.8262 110.424 19.0566 108.243 19.4564 104.703C19.8043 101.379 18.6023 99.6354 14.0473 96.913L14.0471 96.9152ZM127.233 92.7702C126.687 92.7702 126.108 92.8455 125.504 92.9725C121.765 93.9514 119.66 97.5342 119.803 101.221C119.803 104.303 120.401 105.832 121.89 107.448C124.942 109.953 127.701 110.156 131.444 108.811C132.078 108.539 132.767 108.231 132.767 108.231V105.724L131.442 106.415C128.423 107.723 126.152 107.723 124.34 106.178C123.174 104.999 122.668 103.599 122.432 101.964H133.692V99.8186C133.692 95.4656 131.059 92.7021 127.226 92.7752L127.233 92.7702ZM122.671 99.7476C122.671 99.7476 123.092 97.0238 124.635 95.932C125.377 95.4053 126.231 95.1511 127.066 95.1511C127.899 95.1511 128.738 95.4216 129.428 95.9505C130.845 97.0401 131.082 99.7291 131.082 99.7291H122.674L122.671 99.7476ZM71.4013 96.9507C68.3687 95.1178 67.0273 93.7889 67.1899 92.2264C67.6604 87.9026 73.001 88.5024 75.9585 90.138L75.9793 87.2303C75.9793 87.2303 74.3443 86.5219 72.001 86.4885C68.4062 86.4346 66.0817 87.6137 64.9906 90.0123C63.393 93.5532 64.828 96.2238 69.9309 99.2024C72.8011 100.873 74.0715 102.305 74.0715 103.888C74.0715 107.159 70.1309 108.319 66.0631 106.248C65.23 105.831 64.5219 105.488 64.4803 105.488C64.3344 106.415 64.4096 108.633 64.4096 108.633C64.4096 108.633 65.6445 109.139 67.5128 109.52C72.1657 110.449 76.398 108.27 76.796 104.729C77.1417 101.422 75.942 99.6787 71.4013 96.9542L71.4013 96.9507ZM143.669 92.9164C142.052 92.9164 140.801 93.5724 139.981 94.8615L139.328 95.878V93.2288H136.531V109.137H139.326V104.051C139.326 99.4019 139.382 98.8567 140.034 97.586C140.929 95.8426 142.47 94.9701 143.96 95.3882L144.959 95.68V92.9164H143.669ZM49.157 96.8591V86.7242H46.337V109.173H58.1966V106.521H49.1571L49.157 96.8591ZM114.373 100.019L112.049 106.067L109.815 99.9854L107.544 93.2451H104.657C106.528 98.5479 108.562 103.942 110.614 109.173C111.503 109.193 112.395 109.173 113.284 109.173L116.423 101.291L119.62 93.2472H116.861C116.861 93.2472 115.642 96.4424 114.372 100.021L114.373 100.019ZM55.6553 80.6065C56.1094 80.6065 56.4884 80.4609 56.8008 80.1486C57.109 79.8405 57.2715 79.4778 57.2715 79.0242C57.2715 78.5698 57.109 78.1908 56.8008 77.899C56.4884 77.6072 56.128 77.4617 55.676 77.4617C55.218 77.4617 54.8388 77.6072 54.5305 77.916C54.2181 78.2241 54.0765 78.6032 54.0765 79.0405C54.0765 79.4991 54.2224 79.8774 54.5305 80.1656C54.8222 80.4567 55.2012 80.6029 55.6553 80.6029V80.6065ZM54.6556 78.0239C54.9263 77.7535 55.2554 77.6285 55.6762 77.6285C56.0719 77.6285 56.4011 77.7535 56.6761 78.0239C56.9468 78.2951 57.0926 78.6238 57.0926 79.0242C57.0926 79.4238 56.9468 79.7695 56.6761 80.04C56.4011 80.3105 56.0719 80.4404 55.6762 80.4404C55.2742 80.4404 54.9471 80.3154 54.6765 80.04C54.4057 79.7695 54.26 79.4238 54.26 79.0242C54.26 78.6238 54.3849 78.2951 54.6556 78.0239ZM55.3282 79.1697H55.5115C55.6408 79.1697 55.7677 79.2946 55.876 79.5324L56.0949 80.0237H56.4384L56.1677 79.4778C56.0574 79.2591 55.9492 79.1321 55.822 79.0966C55.9824 79.0589 56.1094 79.005 56.2011 78.8964C56.2925 78.8027 56.326 78.6756 56.326 78.5322C56.326 78.3654 56.2739 78.2405 56.1636 78.1489C56.0386 78.0445 55.8386 77.9884 55.5802 77.9884H55.0015V80.0237H55.293V79.1697H55.3282ZM55.3282 78.2241H55.5825C55.7657 78.2241 55.8949 78.2617 55.9657 78.3157C56.0345 78.3697 56.0532 78.4406 56.0532 78.5698C56.0532 78.8048 55.9072 78.9155 55.6366 78.9155H55.3243V78.2241H55.3282ZM8.74422 78.9887C8.74422 78.2802 8.72348 77.7535 8.70677 77.4433H8.72348C8.79629 77.8096 8.88589 78.0822 8.95879 78.2639L11.6663 84.312H12.1204L14.8279 78.2092C14.9011 78.0431 14.974 77.7932 15.0635 77.4454H15.0842C15.0301 78.0495 15.0114 78.5741 15.0114 78.9929V84.3312H15.938V76.3955H14.7759L12.2871 81.9148C12.1954 82.1334 12.0683 82.4607 11.9059 82.8937H11.8682C11.8141 82.6793 11.6871 82.3521 11.5059 81.9524L9.07309 76.3763H7.83813V84.312H8.72953V78.9922L8.74422 78.9887ZM17.9689 79.0036H18.7689V83.9457H17.9689V79.0036ZM18.3689 77.1913C18.5356 77.1913 18.6772 77.1345 18.7854 77.0244C18.8959 76.9158 18.9689 76.7746 18.9689 76.6077C18.9689 76.4452 18.9146 76.2997 18.7876 76.191C18.6752 76.081 18.5314 76.0242 18.3669 76.0242C18.2045 76.0242 18.0587 76.081 17.9503 76.191C17.8402 76.2997 17.767 76.4452 17.767 76.6077C17.767 76.7895 17.8233 76.9158 17.9503 77.0244C18.0755 77.1345 18.2045 77.1913 18.3669 77.1913H18.3689ZM24.4717 84.0543V83.1833C24.0342 83.5106 23.5635 83.6731 23.0761 83.6731C22.4931 83.6731 22.0201 83.473 21.6743 83.0896C21.3308 82.7105 21.1475 82.1838 21.1475 81.5279C21.1475 80.84 21.3308 80.2941 21.7098 79.8781C22.0742 79.4778 22.5472 79.2783 23.1263 79.2783C23.599 79.2783 24.0528 79.4238 24.4718 79.7156V78.7892C24.0906 78.589 23.6553 78.4974 23.1637 78.4974C22.2555 78.4974 21.5476 78.7892 21.0185 79.3514C20.4935 79.9136 20.2228 80.6782 20.2228 81.601C20.2228 82.4216 20.4581 83.1109 20.9477 83.6376C21.4579 84.1793 22.1101 84.454 22.9097 84.454C23.5281 84.437 24.0342 84.3078 24.4717 84.0543ZM26.7605 81.4193C26.7605 80.7669 26.9064 80.2402 27.1771 79.8774C27.4313 79.5509 27.7395 79.3862 28.1039 79.3862C28.4122 79.3862 28.6309 79.4423 28.7911 79.5693V78.6238C28.6663 78.5698 28.485 78.5514 28.2497 78.5514C27.9227 78.5514 27.6313 78.6614 27.375 78.8637C27.1043 79.0781 26.8877 79.4054 26.7606 79.8214H26.7399V78.6614H25.8339V84.3269H26.7419V81.4193H26.7605ZM31.9738 84.4391C32.8279 84.4391 33.5152 84.1644 34.0253 83.6185C34.5334 83.0768 34.7875 82.3478 34.7875 81.4399C34.7875 80.5135 34.5545 79.805 34.0795 79.2776C33.6089 78.7509 32.9547 78.4967 32.1007 78.4967C31.2467 78.4967 30.5593 78.7509 30.0491 79.2421C29.5035 79.7844 29.216 80.5483 29.216 81.5293C29.216 82.3833 29.4493 83.0918 29.941 83.6185C30.4491 84.1644 31.1219 84.437 31.9738 84.437V84.4391ZM30.6825 79.8235C31.0282 79.4593 31.4824 79.2776 32.0446 79.2776C32.628 79.2776 33.0652 79.4593 33.3902 79.8235C33.7171 80.2047 33.8798 80.7485 33.8798 81.4754C33.8798 82.1668 33.7339 82.7105 33.4256 83.0747C33.1174 83.4559 32.6633 83.6582 32.0633 83.6582C31.4802 83.6582 31.0282 83.4559 30.6825 83.0747C30.3389 82.6914 30.1743 82.1668 30.1743 81.4754C30.1389 80.7882 30.3201 80.226 30.6825 79.8235ZM38.7638 83.9457C39.1096 83.6376 39.293 83.2586 39.293 82.783C39.293 82.367 39.147 82.0213 38.8764 81.748C38.6554 81.5293 38.3141 81.3313 37.8204 81.1318C37.3829 80.9486 37.1122 80.7861 36.9663 80.659C36.8206 80.5128 36.731 80.3318 36.731 80.0755C36.731 79.8405 36.8227 79.6588 37.0019 79.5133C37.1852 79.3677 37.4185 79.2968 37.7309 79.2968C38.2204 79.2968 38.6389 79.426 39.022 79.6985V78.7906C38.6555 78.6075 38.2577 78.5201 37.8036 78.5201C37.2205 78.5201 36.7289 78.6806 36.3664 78.9908C35.9852 79.2989 35.8041 79.6993 35.8041 80.1692C35.8041 80.5859 35.929 80.9316 36.1663 81.1857C36.3663 81.4022 36.7081 81.6237 37.1827 81.8211C37.637 82.0213 37.9451 82.2023 38.1096 82.3478C38.272 82.494 38.3449 82.6751 38.3449 82.8894C38.3449 83.4183 37.9826 83.6916 37.2744 83.6916C36.7286 83.6916 36.2394 83.5127 35.8017 83.15V84.1289C36.1975 84.3667 36.6725 84.4746 37.1973 84.4746C37.87 84.4391 38.3969 84.2744 38.7594 83.9479L38.7638 83.9457ZM43.0878 78.4967C42.2337 78.4967 41.5464 78.7509 41.0362 79.2428C40.4946 79.7844 40.203 80.549 40.203 81.53C40.203 82.384 40.4385 83.0918 40.9279 83.6185C41.4382 84.1644 42.1088 84.437 42.9628 84.437C43.8375 84.437 44.5041 84.1622 45.0144 83.6164C45.5246 83.0754 45.7787 82.3464 45.7787 81.4377C45.7787 80.5114 45.5412 79.8029 45.0705 79.2762C44.5792 78.7487 43.9249 78.4946 43.0918 78.4946L43.0878 78.4967ZM44.8498 81.4754C44.8498 82.1668 44.7039 82.7105 44.3957 83.0747C44.0874 83.4559 43.6333 83.6582 43.0334 83.6582C42.45 83.6582 41.9983 83.4559 41.6523 83.0747C41.3088 82.6921 41.1443 82.1668 41.1443 81.4754C41.1443 80.7463 41.3256 80.1841 41.6901 79.805C42.0335 79.4423 42.4879 79.2591 43.0522 79.2591C43.6145 79.2591 44.0666 79.4423 44.3934 79.805C44.6851 80.2047 44.8476 80.7485 44.8476 81.4754H44.8498ZM47.3034 84.3099H48.2094V79.4054H49.5361V78.643H48.2093V77.7677C48.2093 76.9726 48.5174 76.573 49.1549 76.573C49.3695 76.573 49.5882 76.6269 49.7507 76.7185V75.9C49.5882 75.8269 49.3695 75.8105 49.0964 75.8105C48.6071 75.8105 48.2072 75.9561 47.8801 76.2642C47.4989 76.6269 47.297 77.0976 47.297 77.735V78.6643H46.3387V79.4267H47.297V84.3127L47.3034 84.3099ZM51.0252 82.7645C51.0252 83.8726 51.5149 84.437 52.5145 84.437C52.877 84.437 53.1497 84.3788 53.3684 84.2496V83.4708C53.2019 83.5958 53.0039 83.654 52.7853 83.654C52.4772 83.654 52.2605 83.5809 52.1334 83.4169C52.0042 83.2543 51.9314 82.9789 51.9314 82.5998V79.4032H53.3683V78.6408H51.9314V76.9705C51.6189 77.0784 51.3128 77.1707 51.0232 77.2615V78.6408H50.0443V79.4032H51.0232V82.7624L51.0252 82.7645ZM148.5 93.2075C148.192 92.9164 147.828 92.7702 147.376 92.7702C146.918 92.7702 146.539 92.9164 146.23 93.2288C145.922 93.5347 145.776 93.9159 145.776 94.3532C145.776 94.8075 145.922 95.1866 146.228 95.4777C146.536 95.7694 146.915 95.9157 147.373 95.9157C147.826 95.9157 148.207 95.7694 148.519 95.4613C148.825 95.149 148.988 94.7884 148.988 94.3369C148.971 93.8783 148.807 93.4993 148.499 93.2082L148.5 93.2075ZM148.354 95.3535C148.084 95.6239 147.755 95.7488 147.355 95.7488C146.959 95.7488 146.63 95.6239 146.355 95.3535C146.084 95.078 145.939 94.7344 145.939 94.3326C145.939 93.9365 146.064 93.6079 146.338 93.3331C146.609 93.062 146.936 92.937 147.355 92.937C147.75 92.937 148.08 93.062 148.354 93.3331C148.626 93.6079 148.771 93.9365 148.771 94.3326C148.771 94.7536 148.646 95.078 148.354 95.3535ZM147.538 94.4264C147.701 94.3887 147.83 94.3156 147.919 94.2262C148.011 94.1325 148.044 94.0054 148.044 93.8599C148.044 93.6973 147.992 93.5681 147.882 93.4787C147.757 93.3743 147.555 93.3182 147.299 93.3182H146.72V95.3506H147.011V94.4973H147.192C147.318 94.4973 147.443 94.6216 147.555 94.8594L147.772 95.3485H148.117L147.847 94.8033C147.753 94.5655 147.645 94.4569 147.535 94.4214L147.538 94.4264ZM147.338 94.2432H147.026V93.556H147.282C147.464 93.556 147.59 93.5887 147.663 93.6455C147.736 93.6994 147.752 93.7704 147.752 93.8996C147.752 94.1346 147.607 94.2432 147.336 94.2432H147.338ZM96.6655 78.4073H96.9196V76.3728H97.5926V76.1186H95.9932V76.3728H96.6662L96.6655 78.4073ZM98.2073 76.8789C98.2073 76.6809 98.2074 76.5183 98.1924 76.4267C98.2088 76.5346 98.2464 76.6077 98.2634 76.6624L99.0443 78.4073H99.1692L99.9522 76.6454C99.9735 76.5914 99.9898 76.5204 100.025 76.4267C100.008 76.6077 100.008 76.7533 100.008 76.864V78.4051H100.279V76.1186H99.9522L99.2445 77.6974C99.2274 77.7535 99.1714 77.8635 99.1359 77.9892H99.1153C99.1004 77.916 99.0635 77.8429 99.0109 77.718L98.3032 76.1186H97.9362V78.4094H98.1924V76.881L98.2073 76.8789Z" fill="#373737"/>
</svg>
