<svg width="156" height="115" viewBox="0 0 156 115" fill="none" xmlns="http://www.w3.org/2000/svg">
<g clip-path="url(#clip0_4007_233)">
<path d="M23.3504 50.689C23.3504 51.7307 23.4638 52.5753 23.662 53.1947C23.8887 53.8141 24.1719 54.4898 24.5686 55.2218C24.7102 55.447 24.7669 55.6722 24.7669 55.8693C24.7669 56.1509 24.5969 56.4324 24.2286 56.7139L22.444 57.8964C22.189 58.0653 21.9341 58.1498 21.7074 58.1498C21.4242 58.1498 21.1409 58.009 20.8576 57.7556C20.461 57.3333 20.1211 56.8828 19.8378 56.4324C19.5545 55.9538 19.2713 55.4189 18.9596 54.7713C16.75 57.3615 13.9739 58.6565 10.6312 58.6565C8.25171 58.6565 6.35371 57.9808 4.96565 56.6295C3.57758 55.2781 2.86938 53.4763 2.86938 51.2239C2.86938 48.8309 3.71922 46.8882 5.44722 45.4242C7.1752 43.9602 9.46977 43.2282 12.3875 43.2282C13.3507 43.2282 14.3422 43.3127 15.3903 43.4534C16.4385 43.5942 17.5149 43.8194 18.648 44.0729V42.0176C18.648 39.8779 18.1948 38.3858 17.3166 37.513C16.4101 36.6402 14.8804 36.2179 12.6992 36.2179C11.7077 36.2179 10.6879 36.3305 9.63976 36.5839C8.59163 36.8373 7.57182 37.147 6.58034 37.5411C6.12709 37.7382 5.78715 37.8508 5.58886 37.9071C5.39056 37.9635 5.24893 37.9916 5.13562 37.9916C4.73902 37.9916 4.54073 37.7101 4.54073 37.1188V35.7393C4.54073 35.2888 4.59739 34.951 4.73902 34.7539C4.88067 34.5568 5.13561 34.3598 5.53221 34.1627C6.52368 33.6559 7.71342 33.2336 9.10153 32.8958C10.4896 32.5298 11.9627 32.3608 13.5207 32.3608C16.8917 32.3608 19.3562 33.121 20.9426 34.6413C22.5006 36.1616 23.2938 38.4702 23.2938 41.5672V50.689H23.3504ZM11.8493 54.9684C12.7842 54.9684 13.7473 54.7994 14.7671 54.4616C15.7869 54.1237 16.6934 53.5044 17.4583 52.6598C17.9115 52.1248 18.2514 51.5336 18.4214 50.8579C18.5914 50.1822 18.7046 49.3658 18.7046 48.4085V47.2261C17.8831 47.029 17.005 46.8601 16.0985 46.7475C15.192 46.6348 14.3139 46.5785 13.4357 46.5785C11.5377 46.5785 10.1497 46.9445 9.21482 47.7047C8.28003 48.4648 7.82677 49.5347 7.82677 50.9424C7.82677 52.2656 8.16669 53.251 8.8749 53.9267C9.5548 54.6305 10.5462 54.9684 11.8493 54.9684ZM34.5966 58.009C34.0867 58.009 33.7468 57.9246 33.5202 57.7275C33.2935 57.5586 33.0952 57.1644 32.9253 56.6295L26.2682 34.8665C26.0983 34.3035 26.0132 33.9375 26.0132 33.7404C26.0132 33.2899 26.2399 33.0365 26.6931 33.0365H29.4693C30.0075 33.0365 30.3758 33.121 30.5741 33.3181C30.8007 33.487 30.9706 33.8812 31.1406 34.4161L35.8997 53.0539L40.3189 34.4161C40.4605 33.853 40.6304 33.487 40.8571 33.3181C41.0837 33.1492 41.4803 33.0365 41.9902 33.0365H44.2564C44.7947 33.0365 45.1629 33.121 45.3895 33.3181C45.6161 33.487 45.8145 33.8812 45.9277 34.4161L50.4035 53.2792L55.3043 34.4161C55.4743 33.853 55.6726 33.487 55.8708 33.3181C56.0975 33.1492 56.4658 33.0365 56.9757 33.0365H59.6102C60.0634 33.0365 60.3183 33.2618 60.3183 33.7404C60.3183 33.8812 60.29 34.0219 60.2617 34.1908C60.2334 34.3598 60.1767 34.585 60.0634 34.8947L53.2363 56.6576C53.0664 57.2207 52.8681 57.5867 52.6415 57.7556C52.4148 57.9246 52.0466 58.0371 51.565 58.0371H49.1288C48.5906 58.0371 48.2223 57.9527 47.9957 57.7556C47.7691 57.5586 47.5708 57.1926 47.4575 56.6295L43.0666 38.4702L38.7042 56.6013C38.5625 57.1644 38.3926 57.5304 38.1659 57.7275C37.9393 57.9246 37.5427 58.009 37.0328 58.009H34.5966ZM70.9982 58.7692C69.5247 58.7692 68.0519 58.6003 66.6352 58.2624C65.2192 57.9246 64.1143 57.5586 63.3778 57.1362C62.9245 56.8828 62.6129 56.6013 62.4996 56.3479C62.3863 56.0945 62.3296 55.813 62.3296 55.5596V54.1238C62.3296 53.5325 62.5562 53.251 62.9812 53.251C63.1511 53.251 63.3211 53.2792 63.4911 53.3355C63.661 53.3917 63.916 53.5044 64.1992 53.617C65.1624 54.0393 66.2104 54.3772 67.3152 54.6024C68.4487 54.8276 69.5534 54.9402 70.6863 54.9402C72.471 54.9402 73.859 54.6305 74.8222 54.0112C75.7853 53.3917 76.295 52.4908 76.295 51.3366C76.295 50.5482 76.0405 49.9007 75.5302 49.3658C75.0205 48.8309 74.0574 48.3522 72.6694 47.9017L68.5616 46.6348C66.4936 45.9873 64.964 45.0301 64.0293 43.7632C63.0945 42.5244 62.6129 41.1448 62.6129 39.6808C62.6129 38.4984 62.8678 37.4567 63.3778 36.5558C63.8877 35.6548 64.5673 34.8665 65.4176 34.2472C66.2672 33.5996 67.2304 33.121 68.3632 32.7832C69.4967 32.4453 70.6863 32.3045 71.9327 32.3045C72.5559 32.3045 73.2077 32.3327 73.8309 32.4172C74.4822 32.5016 75.0773 32.6142 75.6718 32.7268C76.2389 32.8676 76.7766 33.0084 77.2869 33.1773C77.7965 33.3462 78.1933 33.5151 78.4765 33.6841C78.8732 33.9093 79.1564 34.1345 79.3261 34.3879C79.4964 34.6131 79.5812 34.9228 79.5812 35.317V36.6402C79.5812 37.2315 79.3548 37.5411 78.93 37.5411C78.7029 37.5411 78.3349 37.4285 77.8533 37.2033C76.2389 36.4713 74.4254 36.1053 72.4142 36.1053C70.7998 36.1053 69.5247 36.3587 68.647 36.8936C67.7687 37.4285 67.3152 38.245 67.3152 39.3993C67.3152 40.1876 67.5984 40.8633 68.1655 41.3983C68.7319 41.9332 69.7799 42.4681 71.2814 42.9467L75.3038 44.2136C77.3436 44.8611 78.8164 45.762 79.6948 46.9164C80.5725 48.0707 80.9979 49.3939 80.9979 50.8579C80.9979 52.0686 80.7428 53.1665 80.2612 54.1238C79.7515 55.081 79.0716 55.9256 78.1933 56.6013C77.3149 57.3051 76.2669 57.8119 75.0486 58.1779C73.7742 58.5721 72.443 58.7692 70.9982 58.7692Z" fill="#373737"/>
<path fill-rule="evenodd" clip-rule="evenodd" d="M75.129 72.2989C66.0969 79.0902 52.9736 82.6955 41.6899 82.6955C25.8764 82.6955 11.6277 76.7426 0.865693 66.849C0.0146159 66.0665 0.783331 65.0045 1.79914 65.6193C13.4397 72.4945 27.7982 76.6587 42.6508 76.6587C52.6716 76.6587 63.6807 74.5347 73.8112 70.1748C75.321 69.4761 76.6114 71.181 75.129 72.2989Z" fill="#373737"/>
<path fill-rule="evenodd" clip-rule="evenodd" d="M79.293 68.0183C78.1627 66.4967 71.8115 67.2857 68.9322 67.652C68.0711 67.7647 67.9365 66.9757 68.7166 66.384C73.7761 62.6644 82.0919 63.7352 83.0608 64.9751C84.0297 66.2431 82.7916 74.9501 78.0549 79.1204C77.3283 79.7685 76.6286 79.4304 76.9514 78.585C78.0281 75.7954 80.4232 69.5117 79.293 68.0183Z" fill="#373737"/>
<path d="M94.4415 46.6457C94.8606 46.906 95.4142 47.1319 96.1018 47.3236C96.7895 47.5085 97.47 47.601 98.1443 47.601C99.1617 47.601 99.9354 47.4263 100.465 47.0772C101.001 46.7279 101.269 46.1801 101.269 45.4337C101.269 44.9407 101.138 44.5196 100.877 44.1704C100.623 43.8211 100.269 43.5096 99.8148 43.2357C99.3613 42.9618 98.6871 42.6091 97.7934 42.1778C96.6453 41.6231 95.7032 40.9589 94.9677 40.1851C94.2316 39.4114 93.8636 38.5075 93.8636 37.4736C93.8636 36.5286 94.1111 35.7583 94.6067 35.1626C95.1017 34.56 95.7408 34.1252 96.5247 33.8581C97.3087 33.5911 98.1615 33.4576 99.0826 33.4576C99.9424 33.4576 100.681 33.5397 101.3 33.7041C101.919 33.8616 102.397 34.0499 102.734 34.269L102.27 36.0767C101.823 35.8097 101.365 35.6076 100.898 35.4707C100.43 35.3269 99.8148 35.255 99.0519 35.255C98.5289 35.255 98.0409 35.3235 97.5874 35.4604C97.1333 35.5974 96.7652 35.8097 96.4833 36.0972C96.2013 36.3848 96.0604 36.7409 96.0604 37.1654C96.0604 37.6653 96.1605 38.083 96.3595 38.4185C96.5592 38.7472 96.8654 39.0519 97.2781 39.3326C97.6971 39.6065 98.3331 39.9626 99.1859 40.4009C100.066 40.8528 100.802 41.2807 101.393 41.6848C101.991 42.0819 102.496 42.5715 102.909 43.1536C103.322 43.7356 103.528 44.4066 103.528 45.1667C103.528 46.1048 103.308 46.8922 102.868 47.5291C102.435 48.1659 101.826 48.6418 101.042 48.9567C100.259 49.2649 99.3441 49.4189 98.2986 49.4189C97.6525 49.4189 97.0267 49.371 96.4214 49.2752C95.8237 49.1793 95.3007 49.0629 94.8542 48.9259C94.4141 48.789 94.0939 48.6555 93.8948 48.5254L94.4415 46.6457Z" fill="#373737"/>
<path d="M117.936 50.4153C118.824 50.4153 119.456 50.3502 119.834 50.2201V51.8635C119.669 51.9731 119.408 52.0689 119.051 52.1511C118.693 52.2332 118.325 52.2743 117.947 52.2743C117.163 52.2743 116.444 52.1922 115.791 52.0279C115.145 51.8635 114.516 51.5725 113.904 51.1548C113.299 50.7371 112.717 50.1585 112.161 49.4189C110.785 49.4258 109.575 49.0971 108.531 48.4329C107.492 47.7619 106.691 46.8306 106.127 45.6392C105.563 44.4409 105.281 43.0817 105.281 41.5615C105.281 39.8223 105.601 38.3432 106.241 37.1244C106.887 35.9055 107.76 34.9914 108.86 34.382C109.968 33.7657 111.208 33.4576 112.584 33.4576C113.938 33.4576 115.128 33.776 116.152 34.4128C117.184 35.0496 117.981 35.9534 118.545 37.1244C119.116 38.2884 119.401 39.6476 119.401 41.202C119.401 42.6331 119.192 43.8931 118.772 44.9818C118.352 46.0706 117.765 46.9608 117.008 47.6523C116.252 48.3439 115.365 48.8335 114.347 49.1211C114.767 49.5593 115.292 49.8846 115.925 50.0969C116.558 50.3091 117.228 50.4153 117.936 50.4153ZM107.602 41.4691C107.602 42.5783 107.784 43.6055 108.148 44.5504C108.513 45.4885 109.053 46.2418 109.768 46.8101C110.483 47.3784 111.342 47.6626 112.346 47.6626C113.302 47.6626 114.134 47.4195 114.842 46.9333C115.557 46.4472 116.108 45.7316 116.493 44.7867C116.878 43.8349 117.07 42.6811 117.07 41.3253C117.07 40.2091 116.895 39.1854 116.544 38.2542C116.194 37.3229 115.675 36.5834 114.987 36.0356C114.306 35.481 113.481 35.2037 112.511 35.2037C111.597 35.2037 110.768 35.4365 110.026 35.9021C109.283 36.3609 108.692 37.0593 108.252 37.9974C107.819 38.9355 107.602 40.0927 107.602 41.4691Z" fill="#373737"/>
<path d="M124.795 33.6219V47.4571H131.025V49.2546H122.444V33.6219H124.795Z" fill="#373737"/>
<path d="M94.4415 73.6142C94.8606 73.8744 95.4142 74.1004 96.1018 74.2921C96.7895 74.477 97.47 74.5694 98.1443 74.5694C99.1617 74.5694 99.9354 74.3948 100.465 74.0456C101.001 73.6964 101.269 73.1486 101.269 72.4022C101.269 71.9091 101.138 71.488 100.877 71.1389C100.623 70.7896 100.269 70.478 99.8148 70.2041C99.3613 69.9302 98.6871 69.5776 97.7934 69.1462C96.6453 68.5916 95.7032 67.9274 94.9677 67.1536C94.2316 66.3798 93.8636 65.476 93.8636 64.442C93.8636 63.4971 94.1111 62.7268 94.6067 62.131C95.1017 61.5284 95.7408 61.0936 96.5247 60.8266C97.3087 60.5595 98.1615 60.426 99.0826 60.426C99.9424 60.426 100.681 60.5082 101.3 60.6725C101.919 60.83 102.397 61.0183 102.734 61.2374L102.27 63.0451C101.823 62.7781 101.365 62.5761 100.898 62.4391C100.43 62.2954 99.8148 62.2234 99.0519 62.2234C98.5289 62.2234 98.0409 62.2919 97.5874 62.4289C97.1333 62.5658 96.7652 62.7781 96.4833 63.0656C96.2013 63.3533 96.0604 63.7093 96.0604 64.1339C96.0604 64.6338 96.1605 65.0514 96.3595 65.387C96.5592 65.7156 96.8654 66.0203 97.2781 66.3011C97.6971 66.575 98.3331 66.9311 99.1859 67.3693C100.066 67.8212 100.802 68.2492 101.393 68.6532C101.991 69.0504 102.496 69.5399 102.909 70.122C103.322 70.704 103.528 71.3751 103.528 72.1351C103.528 73.0732 103.308 73.8607 102.868 74.4975C102.435 75.1343 101.826 75.6102 101.042 75.9252C100.259 76.2333 99.3441 76.3874 98.2986 76.3874C97.6525 76.3874 97.0267 76.3395 96.4214 76.2436C95.8237 76.1477 95.3007 76.0313 94.8542 75.8944C94.4141 75.7574 94.0939 75.6239 93.8948 75.4938L94.4415 73.6142Z" fill="#373737"/>
<path d="M114.832 68.7662C114.832 69.3208 114.825 69.7522 114.812 70.0604C114.798 70.3616 114.767 70.6287 114.718 70.8615H107.468C107.475 70.9094 107.478 70.9779 107.478 71.0669C107.595 73.4772 108.791 74.6824 111.067 74.6824C111.48 74.6824 112.002 74.6174 112.635 74.4872C113.268 74.3571 113.721 74.2099 113.996 74.0456L114.43 75.3397C114.052 75.6479 113.478 75.9012 112.707 76.0998C111.937 76.2915 111.188 76.3874 110.459 76.3874C109.352 76.3874 108.41 76.1512 107.633 75.6787C106.856 75.1993 106.265 74.5078 105.859 73.6039C105.454 72.7 105.251 71.6147 105.251 70.348C105.251 69.1976 105.45 68.1739 105.848 67.2769C106.254 66.3798 106.849 65.6746 107.633 65.161C108.423 64.6406 109.38 64.3701 110.5 64.3496C111.291 64.3359 112.009 64.4968 112.656 64.8323C113.302 65.1678 113.818 65.6711 114.203 66.3422C114.595 67.0132 114.805 67.8212 114.832 68.7662ZM112.707 69.3619C112.721 69.1428 112.728 68.9819 112.728 68.8792C112.728 68.0095 112.549 67.3042 112.192 66.7633C111.841 66.2224 111.236 65.9519 110.377 65.9519C109.613 65.9519 108.977 66.2224 108.469 66.7633C107.967 67.2974 107.653 68.1636 107.53 69.3619H112.707Z" fill="#373737"/>
<path d="M122.815 64.3393C123.365 64.3393 123.747 64.3872 123.96 64.4831V66.5989C123.816 66.5168 123.626 66.4517 123.393 66.4038C123.166 66.349 122.839 66.3217 122.413 66.3217C121.891 66.3217 121.406 66.4175 120.959 66.6092C120.518 66.7941 120.147 67.0201 119.845 67.2871V76.223H117.575V64.5344H119.484L119.638 65.8286C119.789 65.6232 120.034 65.4041 120.37 65.1713C120.714 64.9385 121.103 64.7433 121.536 64.5858C121.976 64.4215 122.403 64.3393 122.815 64.3393Z" fill="#373737"/>
<path d="M135.583 64.5139L131.066 76.3874H129.158L124.496 64.5139H126.94L129.272 71.1799L130.138 73.9737L130.932 71.1799L133.17 64.5139H135.583Z" fill="#373737"/>
<path d="M146.372 68.7662C146.372 69.3208 146.365 69.7522 146.352 70.0604C146.338 70.3616 146.307 70.6287 146.259 70.8615H139.008C139.015 70.9094 139.018 70.9779 139.018 71.0669C139.135 73.4772 140.332 74.6824 142.608 74.6824C143.02 74.6824 143.543 74.6174 144.175 74.4872C144.808 74.3571 145.262 74.2099 145.537 74.0456L145.97 75.3397C145.591 75.6479 145.017 75.9012 144.248 76.0998C143.478 76.2915 142.728 76.3874 141.999 76.3874C140.892 76.3874 139.95 76.1512 139.173 75.6787C138.396 75.1993 137.804 74.5078 137.399 73.6039C136.993 72.7 136.79 71.6147 136.79 70.348C136.79 69.1976 136.99 68.1739 137.389 67.2769C137.794 66.3798 138.389 65.6746 139.173 65.161C139.964 64.6406 140.92 64.3701 142.041 64.3496C142.831 64.3359 143.55 64.4968 144.196 64.8323C144.842 65.1678 145.358 65.6711 145.743 66.3422C146.135 67.0132 146.345 67.8212 146.372 68.7662ZM144.248 69.3619C144.262 69.1428 144.268 68.9819 144.268 68.8792C144.268 68.0095 144.089 67.3042 143.731 66.7633C143.381 66.2224 142.776 65.9519 141.917 65.9519C141.153 65.9519 140.517 66.2224 140.008 66.7633C139.506 67.2974 139.194 68.1636 139.07 69.3619H144.248Z" fill="#373737"/>
<path d="M154.355 64.3393C154.906 64.3393 155.287 64.3872 155.5 64.4831V66.5989C155.356 66.5168 155.166 66.4517 154.933 66.4038C154.706 66.349 154.379 66.3217 153.953 66.3217C153.43 66.3217 152.945 66.4175 152.499 66.6092C152.059 66.7941 151.688 67.0201 151.385 67.2871V76.223H149.116V64.5344H151.023L151.179 65.8286C151.33 65.6232 151.574 65.4041 151.911 65.1713C152.255 64.9385 152.643 64.7433 153.076 64.5858C153.516 64.4215 153.942 64.3393 154.355 64.3393Z" fill="#373737"/>
</g>
<defs>
<clipPath id="clip0_4007_233">
<rect width="155" height="115" fill="white" transform="translate(0.5)"/>
</clipPath>
</defs>
</svg>
