<svg width="156" height="115" viewBox="0 0 156 115" fill="none" xmlns="http://www.w3.org/2000/svg">
<path d="M19.1932 92.575C20.244 92.3999 21.6179 92.2496 23.3687 92.2496C25.5176 92.2496 27.0933 92.7495 28.0933 93.6499C29.0182 94.4496 29.5681 95.6741 29.5681 97.175C29.5681 98.7001 29.1172 99.8997 28.2673 100.775C27.1174 102 25.2426 102.624 23.1178 102.624C22.4679 102.624 21.8679 102.6 21.3689 102.475V109.225H19.1932V92.575ZM21.3689 100.699C21.8439 100.824 22.4438 100.874 23.1688 100.874C25.7925 100.874 27.3933 99.5991 27.3933 97.2743C27.3933 95.0495 25.8185 93.9746 23.4187 93.9746C22.4688 93.9746 21.7439 94.0497 21.3689 94.1497V100.699ZM42.7418 103.074C42.7418 107.549 39.6412 109.499 36.7165 109.499C33.4418 109.499 30.917 107.099 30.917 103.274C30.917 99.2241 33.5668 96.8496 36.9164 96.8496C40.3921 96.8483 42.7418 99.3744 42.7418 103.074ZM33.1428 103.199C33.1428 105.848 34.6677 107.848 36.8174 107.848C38.9172 107.848 40.4911 105.873 40.4911 103.148C40.4911 101.099 39.4672 98.4995 36.8665 98.4995C34.2658 98.4995 33.1428 100.899 33.1428 103.199ZM45.2156 106.974C45.8656 107.398 47.0155 107.848 48.1153 107.848C49.7152 107.848 50.4651 107.049 50.4651 106.048C50.4651 104.998 49.8412 104.424 48.2154 103.823C46.0406 103.048 45.0157 101.849 45.0157 100.399C45.0157 98.4492 46.5906 96.8496 49.1903 96.8496C50.4152 96.8496 51.491 97.1992 52.166 97.5991L51.616 99.1993C51.141 98.8993 50.2661 98.4995 49.1413 98.4995C47.8414 98.4995 47.1164 99.2489 47.1164 100.149C47.1164 101.149 47.8424 101.599 49.4172 102.199C51.517 102.999 52.5919 104.049 52.5919 105.848C52.5919 107.973 50.9421 109.473 48.0673 109.473C46.7424 109.473 45.5175 109.148 44.6676 108.648L45.2156 106.974ZM58.0654 93.6486V97.1234H61.2141V98.7981H58.0654V105.322C58.0654 106.823 58.4894 107.672 59.7152 107.672C60.2902 107.672 60.7151 107.598 60.9901 107.522L61.0901 109.172C60.6661 109.347 59.9902 109.472 59.1412 109.472C58.1164 109.472 57.2905 109.147 56.7655 108.547C56.1415 107.897 55.9156 106.823 55.9156 105.398V98.7981H54.0408V97.1234H55.9156V94.2236L58.0654 93.6486ZM73.9638 97.124C73.9129 97.9989 73.8638 98.9738 73.8638 100.449V107.473C73.8638 110.248 73.3139 111.948 72.139 112.999C70.9641 114.099 69.2643 114.449 67.7394 114.449C66.2896 114.449 64.6897 114.098 63.7139 113.449L64.2638 111.774C65.0637 112.274 66.3136 112.724 67.8135 112.724C70.0632 112.724 71.7131 111.549 71.7131 108.499V107.149H71.6631C70.9882 108.274 69.6883 109.174 67.8135 109.174C64.8137 109.174 62.664 106.625 62.664 103.274C62.664 99.1738 65.3387 96.8496 68.1135 96.8496C70.2142 96.8496 71.3641 97.9493 71.889 98.949H71.939L72.039 97.124H73.9638ZM71.689 101.899C71.689 101.524 71.6641 101.199 71.564 100.899C71.1641 99.624 70.0892 98.5739 68.4894 98.5739C66.3886 98.5739 64.8897 100.349 64.8897 103.148C64.8897 105.524 66.0896 107.498 68.4644 107.498C69.8142 107.498 71.0391 106.648 71.5141 105.249C71.6391 104.873 71.69 104.449 71.69 104.074V101.899H71.689ZM77.3625 100.899C77.3625 99.4744 77.3376 98.2492 77.2626 97.124H79.1884L79.2624 99.4992H79.3624C79.9123 97.8741 81.2372 96.8496 82.7121 96.8496C82.962 96.8496 83.136 96.8744 83.336 96.9241V98.9993C83.112 98.949 82.8861 98.9242 82.5871 98.9242C81.0372 98.9242 79.9364 100.099 79.6374 101.749C79.5873 102.049 79.5373 102.399 79.5373 102.774V109.223H77.3625V100.899ZM86.5126 103.574C86.5629 106.548 88.4617 107.773 90.6611 107.773C92.2371 107.773 93.1859 107.498 94.0111 107.149L94.3862 108.723C93.6112 109.073 92.2861 109.473 90.3612 109.473C86.6367 109.473 84.4119 107.023 84.4119 103.374C84.4119 99.724 86.5616 96.8483 90.0861 96.8483C94.036 96.8483 95.086 100.323 95.086 102.548C95.086 102.998 95.0357 103.348 95.0108 103.573H86.5126V103.574ZM92.9618 101.999C92.9859 100.599 92.3861 98.4243 89.9123 98.4243C87.6874 98.4243 86.7125 100.474 86.5368 101.999H92.9618ZM97.5853 106.574C98.5608 107.173 99.9852 107.673 101.485 107.673C103.71 107.673 105.01 106.498 105.01 104.798C105.01 103.224 104.11 102.324 101.835 101.449C99.0855 100.474 97.3853 99.049 97.3853 96.6745C97.3853 94.0497 99.5605 92.1 102.835 92.1C104.56 92.1 105.81 92.4999 106.56 92.9246L105.96 94.6992C105.41 94.3993 104.285 93.8995 102.76 93.8995C100.46 93.8995 99.5854 95.2742 99.5854 96.4242C99.5854 97.999 100.609 98.7739 102.935 99.6743C105.785 100.775 107.235 102.149 107.235 104.624C107.235 107.223 105.31 109.473 101.335 109.473C99.7102 109.473 97.9355 108.998 97.0344 108.398L97.5853 106.574ZM124.108 111.698C121.833 111.098 119.608 110.423 117.659 109.748C117.308 109.623 116.959 109.498 116.633 109.498C112.634 109.348 109.209 106.399 109.209 100.974C109.209 95.5741 112.509 92.1 117.059 92.1C121.633 92.1 124.609 95.6493 124.609 100.624C124.609 104.949 122.609 107.723 119.81 108.698V108.798C121.484 109.223 123.309 109.623 124.734 109.873L124.108 111.698ZM122.308 100.724C122.308 97.3495 120.559 93.874 116.984 93.874C113.309 93.874 111.509 97.273 111.534 100.924C111.509 104.498 113.484 107.723 116.884 107.723C120.359 107.723 122.308 104.574 122.308 100.724ZM127.432 92.3751H129.608V107.398H136.807V109.223H127.432V92.3751Z" fill="#373737"/>
<path d="M63.0656 14.6502C42.9756 8.31079 31.486 14.0803 32.3021 31.0568C32.3896 32.6886 32.973 36.0732 33.982 40.2746C34.9909 44.4757 36.4102 49.4083 38.1555 53.8377C39.9008 58.2666 41.9157 62.1721 44.4289 64.4511C45.6855 65.5905 47.1758 66.3596 48.8124 66.2949C50.4491 66.2296 52.0059 65.3365 53.4059 63.7664C56.7459 60.0178 59.4845 57.3141 60.0205 56.7875C61.464 57.512 62.8729 57.9681 64.8711 57.9882C63.1425 60.0824 62.8672 60.7656 60.0053 61.1577C56.8527 61.5897 53.861 62.6734 55.4607 65.2948C56.6096 67.1777 65.1883 69.1242 70.1525 64.7145C70.2436 77.8596 69.7908 88.6082 82.4893 86.678C92.8134 85.1092 92.2005 78.2438 94.0909 63.8189C103.635 65.6506 113.284 59.6342 110.024 56.7873C108.356 55.2084 102.67 58.4586 98.37 56.4184C105.171 47.8115 113.498 26.1295 108.712 19.2063C101.902 11.2965 90.8552 9.29626 79.4431 12.7013C72.1675 11.1539 67.0083 12.1663 63.0656 14.6502ZM83.485 13.9911C96.2752 11.4722 108.559 17.2349 107.87 25.4476C106.952 36.3727 102.637 45.6583 96.9763 54.3114C96.8384 54.153 96.6993 54.0023 96.5562 53.8373C99.9624 47.9652 97.9094 44.0984 97.8166 39.1158C97.7709 36.6914 98.9385 31.4774 98.5445 30.4215C96.4588 24.8296 93.77 18.6773 83.485 13.9911ZM73.3797 14.2287C85.6135 14.6125 92.4345 21.7743 95.9008 29.8719C87.1536 29.1093 84.5805 33.1424 86.2153 39.2473C87.3758 43.0428 89.1668 46.5981 91.2551 49.8079C92.4573 51.5718 92.1267 52.2356 95.429 56.1547C92.4769 56.9368 91.8503 58.9514 91.8843 61.5004C91.7327 63.3928 90.4331 73.6118 89.7849 77.1173C88.8074 82.7255 85.7449 83.7651 81.989 84.491C72.2209 85.9057 72.5978 79.4147 72.6173 60.527C72.4146 57.8456 69.9362 55.8183 67.3685 56.3133C68.7117 50.6293 73.5566 46.6759 70.5708 34.9556C68.9539 29.0096 62.5841 29.2139 56.6067 32.164C57.7075 21.0934 62.8951 14.148 73.3797 14.2287ZM53.8509 44.9889C53.2184 49.2083 54.9919 53.122 57.9981 55.5231C56.4233 57.2388 53.8261 59.5666 52.6899 61.0736C48.2033 67.0241 45.3115 63.928 40.4124 53.0471C35.2651 36.7964 31.3909 25.8226 38.3912 18.0213C43.8485 13.083 51.9747 13.8322 60.9116 16.3092C58.6705 18.3554 57.1677 20.8775 56.1607 23.3672C52.65 32.9125 54.9923 37.6128 53.8509 44.9889ZM95.035 51.7831C92.5697 47.5231 89.2504 41.7223 88.5513 38.7207C87.3255 33.8863 88.6813 31.326 96.2164 32.1632C96.1713 34.3706 95.5264 36.1847 95.4284 39.0368C95.412 43.2035 97.0841 48.4457 95.035 51.7831ZM65.0068 55.7333C59.7951 55.7254 55.3592 51.0053 56.2134 45.3044C56.7338 42.0022 56.7116 38.5185 56.4497 34.9545C60.2861 32.3647 67.3713 30.5972 68.2353 35.429C71.0095 47.2352 67.0266 48.5032 65.0068 55.7333ZM93.985 33.6909C93.8393 32.5695 89.7973 33.0962 89.9424 34.2176C90.2861 35.4067 92.737 36.2008 93.9399 33.993C93.9824 33.9158 93.9928 33.772 93.985 33.6909ZM66.8436 35.5085C68.4244 33.7768 62.9574 32.8643 62.6702 34.4287C62.4979 35.333 64.8723 37.5137 66.8436 35.5085ZM107.528 58.736C103.237 62.4129 96.3053 62.3745 94.2993 61.4481C94.3202 59.7872 94.2562 58.5576 96.8195 58.1303C98.7686 59.5131 102.203 59.7808 107.528 58.736ZM57.683 64.1084C58.5628 63.5465 61.5308 63.2775 63.3691 62.4706C64.8434 61.8234 65.7244 60.4724 67.1223 58.9931C68.4436 57.3601 70.9817 59.7003 69.9673 61.5275C66.4138 66.2936 60.0564 65.3906 57.683 64.1084Z" fill="#373737"/>
</svg>
