<svg width="156" height="115" viewBox="0 0 156 115" fill="none" xmlns="http://www.w3.org/2000/svg">
<g clip-path="url(#clip0_4013_355)">
<path fill-rule="evenodd" clip-rule="evenodd" d="M0.5 90.5416H5.65497V70.2366L13.6039 87.9443C14.5477 90.068 15.8079 90.8159 18.3259 90.8159C20.8447 90.8159 22.1041 90.068 23.0478 87.9443L30.9968 70.2366V90.5416H36.112V70.2753C36.112 68.3086 35.3245 67.3623 33.7114 66.8508C29.8158 65.631 27.1788 66.6938 25.9988 69.3308L18.2077 86.7633L10.653 69.3308C9.5117 66.6938 6.83589 65.631 2.94034 66.8508C1.28758 67.3623 0.500882 68.3078 0.500882 70.2753V90.5416H0.5ZM40.401 74.013H45.5162V85.1891C45.4774 85.8179 45.7129 87.2351 48.5466 87.2749C49.963 87.3128 59.6035 87.2749 59.682 87.2749V73.9733H64.837C64.8758 73.9733 64.837 92.1132 64.837 92.1926C64.8758 96.6778 59.2886 97.6218 56.7311 97.7016H40.5191V94.2387C40.5191 94.2387 56.6922 94.2784 56.7311 94.2387C60.0366 93.9239 59.6432 92.2719 59.6432 91.7208V90.3819H48.7433C43.6668 90.3044 40.4397 88.0995 40.401 85.5418C40.401 85.3063 40.5191 74.1321 40.401 74.013ZM150.935 61.1455C147.788 61.067 145.387 61.3422 143.301 62.247C142.712 62.4833 141.806 62.4834 141.689 63.2313C142.003 63.5444 142.081 64.0567 142.317 64.4907C142.829 65.2783 143.656 66.3393 144.404 66.8905C145.191 67.5211 146.017 68.1499 146.883 68.7011C148.457 69.6448 150.188 70.1563 151.644 71.1027C152.549 71.6521 153.414 72.362 154.28 72.9909C154.673 73.3057 154.988 73.7784 155.5 73.9743V73.8966C155.225 73.542 155.146 73.0305 154.909 72.6355L153.729 71.4554C152.588 69.9605 151.132 68.6217 149.596 67.5211C148.376 66.655 145.622 65.4352 145.11 64.0188C145.071 63.9792 145.031 63.9792 145.031 63.9395C145.898 63.8204 146.922 63.5073 147.708 63.3089C149.047 62.9561 150.266 63.0337 151.642 62.68C152.273 62.4825 152.901 62.3256 153.532 62.1289V61.7743C152.824 61.0661 152.352 60.0827 151.565 59.453C149.559 57.7217 147.355 56.0293 145.112 54.6129C143.853 53.7865 142.317 53.275 140.98 52.6065C140.546 52.4098 139.759 52.2916 139.446 51.8983C138.736 51.0322 138.383 49.891 137.832 48.8679C136.678 46.6235 135.602 44.3397 134.606 42.0205C133.937 40.4859 133.464 38.9513 132.639 37.5341C128.546 30.8445 124.178 26.792 117.371 22.817C115.915 21.9906 114.185 21.637 112.334 21.204C111.351 21.1246 110.367 21.0858 109.383 21.0064C108.792 20.77 108.163 20.023 107.572 19.6685C105.33 18.2521 99.545 15.1432 97.8911 19.2355C96.8286 21.7931 99.4659 24.3119 100.409 25.611C101.079 26.5159 101.904 27.5398 102.378 28.5621C102.691 29.2306 102.73 29.8999 103.007 30.6081C103.675 32.3791 104.226 34.307 105.053 35.9201C105.485 36.7464 105.957 37.6125 106.508 38.3605C106.823 38.7935 107.414 38.9901 107.491 39.6983C106.94 40.485 106.902 41.666 106.587 42.6493C105.209 47.0961 105.721 52.5659 107.768 55.8706C108.398 56.8539 109.853 59.0182 111.9 58.1927C113.671 57.4448 113.277 55.2409 113.789 53.2344C113.907 52.8014 113.828 52.4865 114.064 52.1717V52.2502C114.575 53.3517 115.126 54.4145 115.677 55.4763C116.858 57.4052 118.983 59.4512 120.794 60.7883C121.698 61.4965 122.445 62.7171 123.665 63.1095V63.0302H123.548C123.312 62.6774 122.957 62.5195 122.682 62.2435C121.974 61.5353 121.187 60.6692 120.596 59.8825C118.984 57.6786 117.528 55.2391 116.19 52.7203C115.56 51.5005 115.008 50.1626 114.499 48.9429C114.3 48.471 114.3 47.7628 113.868 47.4868C113.277 48.3917 112.453 49.1395 111.978 50.2023C111.27 51.8947 111.152 53.9797 110.917 56.1052C110.758 56.1837 110.798 56.144 110.718 56.2234C109.46 55.9085 109.027 54.6093 108.555 53.5078C107.414 50.7138 107.177 46.2283 108.2 43.0012C108.475 42.1749 109.697 39.5775 109.185 38.7908C108.947 38.0429 108.2 37.5711 107.769 36.981C107.217 36.2728 106.705 35.3283 106.313 34.5019C105.369 32.2979 104.935 29.8585 103.911 27.6554C103.4 26.5926 102.614 25.5299 101.944 24.625C101.197 23.5623 100.37 22.8153 99.7814 21.5558C99.5845 21.1228 99.3094 20.4146 99.5845 19.9419C99.7023 19.627 99.8209 19.5089 100.134 19.3907C100.645 18.9973 102.103 19.5485 102.652 19.7443C104.069 20.374 105.289 20.9253 106.509 21.7516C107.1 22.145 107.691 22.892 108.399 23.0895H109.187C110.446 23.3647 111.861 23.168 113.042 23.5226C115.127 24.1514 117.016 25.1357 118.708 26.2381C123.902 29.5039 128.114 34.1474 131.025 39.6957C131.497 40.6006 131.694 41.427 132.088 42.3715C132.915 44.3003 133.976 46.2671 134.803 48.1165C135.59 50.0056 136.416 51.8947 137.557 53.4285C138.187 54.2549 140.547 54.6879 141.61 55.1201C142.358 55.4349 143.577 55.7885 144.287 56.2224C145.664 57.0091 146.962 57.9934 148.261 58.8983C148.889 59.3358 150.855 60.3191 150.935 61.1455Z" fill="#373737"/>
<path fill-rule="evenodd" clip-rule="evenodd" d="M110.798 26.9507C110.255 26.9509 109.713 27.0173 109.186 27.1482V27.2267H109.303C109.618 27.8565 110.169 28.2895 110.562 28.8398C110.838 29.4695 111.153 30.0993 111.428 30.729L111.546 30.6108C112.097 30.2571 112.333 29.6274 112.333 28.6441C112.136 28.4077 112.097 28.1325 111.901 27.8565C111.625 27.4623 111.153 27.2656 110.798 26.9507Z" fill="#373737"/>
<path fill-rule="evenodd" clip-rule="evenodd" d="M68.8119 90.5416H83.5676C85.299 90.5416 86.9908 90.187 88.3284 89.5564C90.5318 88.5351 91.6338 87.1567 91.6338 85.3469V81.5696C91.6338 80.1143 90.3744 78.698 87.9758 77.7921C86.6769 77.2806 85.1021 77.0443 83.5676 77.0443H77.3509C75.2651 77.0443 74.2817 76.4137 74.0454 75.0379C74.0057 74.8808 74.0057 74.723 74.0057 74.566V72.2438C74.0057 72.0869 74.0057 71.9687 74.0454 71.8117C74.2817 70.7489 74.832 70.4341 76.6427 70.2771C76.7997 70.2771 76.9964 70.2374 77.1542 70.2374H91.8314V66.8146H77.3906C75.3048 66.8146 74.242 66.9716 73.2587 67.2468C70.1896 68.2301 68.8516 69.7259 68.8516 72.3629V75.3536C68.8516 77.6757 71.4878 79.6425 75.856 80.1143C76.3675 80.1143 76.8394 80.154 77.3509 80.154H82.6639C82.8608 80.154 83.0561 80.154 83.2134 80.1937C84.8665 80.3507 85.5353 80.6258 86.0468 81.215C86.322 81.5299 86.4413 81.8059 86.4413 82.1604V85.1511C86.4413 85.5056 86.2049 85.9784 85.6934 86.3708C85.2594 86.7651 84.5116 87.0015 83.5281 87.079C83.3312 87.079 83.1754 87.1187 82.977 87.1187H68.8119V90.5416ZM123.665 84.5584C123.665 88.1003 126.262 90.067 131.576 90.4613C132.048 90.501 132.559 90.5407 133.03 90.5407H146.41V87.1161H132.951C129.921 87.1161 128.78 86.3682 128.78 84.5584V66.8129H123.665V84.5584H123.665ZM94.9004 84.7551V72.5578C94.9004 69.4489 97.0642 67.5607 101.393 66.9698C101.827 66.8904 102.338 66.8904 102.771 66.8904H112.528C113 66.8904 113.434 66.8904 113.945 66.9698C118.234 67.5607 120.437 69.4489 120.437 72.5578V84.7551C120.437 87.2748 119.494 88.6119 117.368 89.478L122.445 94.0429H116.464L112.371 90.3828L108.238 90.6192H102.77C101.826 90.6192 100.842 90.5019 99.7388 90.187C96.4752 89.3201 94.9004 87.5888 94.9004 84.7551ZM100.449 84.442C100.449 84.6387 100.489 84.7948 100.528 84.9933C100.843 86.4087 102.18 87.1964 104.186 87.1964H108.871L104.582 83.3396H110.562L114.3 86.6848C114.971 86.3303 115.442 85.7791 115.599 85.0709C115.639 84.8742 115.639 84.7181 115.639 84.5594V72.8338C115.639 72.7148 115.639 72.5587 115.599 72.3999C115.284 71.0629 113.947 70.3159 111.978 70.3159H104.187C101.905 70.3159 100.45 71.2993 100.45 72.8338V84.442H100.449ZM148.771 90.5416H149.519V87.7079H150.542V87.117H147.748V87.7079H148.771V90.5416ZM154.517 90.5416H155.185V87.117H154.162L153.258 89.4788L152.354 87.117H151.292V90.5416H151.999V87.9442L152.983 90.5416H153.494L154.478 87.9442H154.517L154.517 90.5416Z" fill="#373737"/>
</g>
<defs>
<clipPath id="clip0_4013_355">
<rect width="155" height="115" fill="white" transform="translate(0.5)"/>
</clipPath>
</defs>
</svg>
