<svg width="156" height="115" viewBox="0 0 156 115" fill="none" xmlns="http://www.w3.org/2000/svg">
<g clip-path="url(#clip0_4013_79)">
<path d="M94.7455 33.2596C90.4567 14.3324 81.5178 9.29374 79.2377 5.73196C78.2974 4.1629 77.4644 2.53193 76.7445 0.85025C76.6241 2.53167 76.4028 3.59096 74.9741 4.86603C72.1056 7.42459 59.9228 17.3562 58.8975 38.8614C57.9422 58.9124 73.6323 71.2763 75.7052 72.5543C77.2992 73.3389 79.2408 72.571 80.1873 71.8509C87.7509 66.6581 98.0847 52.8144 94.7542 33.2596" fill="#373737"/>
<path d="M77.3944 61.8773C76.9994 66.8403 76.7165 69.7239 75.7136 72.5599C75.7136 72.5599 76.3719 77.2847 76.8342 82.2898H78.4701C78.8604 78.7652 79.4564 75.2666 80.2542 71.8116C78.1367 70.7692 77.4757 66.2322 77.3944 61.8773Z" fill="#373737"/>
<path d="M80.2518 71.8145C78.1116 70.8252 77.4925 66.1929 77.3972 61.8773C77.9265 54.7583 78.0808 47.6164 77.8595 40.4812C77.7474 36.7373 77.9127 5.80483 76.9378 1.27621C77.6047 2.81001 78.373 4.29763 79.2376 5.72916C81.5178 9.29375 90.4598 14.3324 94.7455 33.2596C98.0847 52.7808 87.8067 66.588 80.2518 71.8145Z" fill="#373737"/>
<path d="M117.615 102.183C118.409 102.818 119.993 103.079 121.391 103.079C123.201 103.079 124.976 102.743 126.71 101.176C128.476 99.5703 129.692 97.1123 129.692 93.1878C129.692 89.4166 128.258 86.3568 125.315 84.5644C123.655 83.5203 121.503 83.1088 119.05 83.1088C118.343 83.1088 117.615 83.1458 117.202 83.3331C117.032 83.4668 116.913 83.6533 116.861 83.8634C116.787 84.5345 116.787 89.6487 116.787 92.6716C116.787 95.7709 116.787 100.094 116.861 100.623C116.9 101.072 117.126 101.86 117.615 102.19V102.183ZM110.084 81.4298C110.725 81.4298 113.163 81.5415 114.297 81.5415C116.416 81.5415 117.881 81.4298 121.842 81.4298C125.163 81.4298 127.957 82.326 129.955 84.042C132.371 86.1341 133.665 89.0437 133.665 92.5906C133.665 97.6301 131.368 100.542 129.06 102.183C126.764 103.901 123.777 104.871 119.521 104.871C117.257 104.871 113.369 104.797 110.124 104.76H110.057C109.906 104.461 110.334 103.297 110.6 103.267C111.483 103.168 111.716 103.132 112.122 102.965C112.807 102.684 112.969 102.334 113.044 101.102C113.157 98.7874 113.12 96.0258 113.12 92.8888C113.12 90.6503 113.157 86.282 113.084 84.9004C112.969 83.7446 112.481 83.4464 111.493 83.2221C110.793 83.0727 110.086 82.9609 109.374 82.8862C109.3 82.6619 109.879 81.6493 110.068 81.4298" fill="#373737"/>
<path d="M143.017 83.3244C142.867 83.3614 142.678 83.7359 142.678 83.9216C142.639 85.2663 142.602 88.7738 142.602 91.1995C142.611 91.246 142.635 91.2884 142.669 91.3223C142.702 91.3553 142.745 91.3781 142.792 91.3868C143.28 91.4246 144.489 91.4631 145.508 91.4631C146.942 91.4631 147.772 91.2759 148.224 91.0516C149.433 90.4544 149.991 89.1468 149.991 87.7297C149.991 84.4818 147.726 83.2497 144.368 83.2497C143.914 83.2442 143.461 83.2694 143.01 83.3244H143.017ZM151.577 98.2556C151.577 94.9707 149.161 93.1044 144.744 93.1044C144.558 93.1044 143.155 93.0674 142.821 93.1421C142.708 93.1791 142.595 93.2531 142.595 93.3294C142.595 95.6812 142.556 99.4499 142.671 100.943C142.747 101.577 143.201 102.474 143.765 102.735C144.368 103.071 145.727 103.145 146.67 103.145C149.274 103.145 151.577 101.691 151.577 98.2556ZM136.199 81.4951C136.54 81.4951 137.544 81.6068 140.11 81.6068C142.525 81.6068 144.487 81.5329 146.822 81.5329C149.728 81.5329 153.727 82.5785 153.727 86.9075C153.727 89.028 152.218 90.7526 150.256 91.5748C150.143 91.6118 150.143 91.6858 150.256 91.7228C153.048 92.4293 155.5 94.1493 155.5 97.4341C155.5 100.644 153.501 102.661 150.595 103.929C148.829 104.714 146.633 104.974 144.412 104.974C142.715 104.974 138.165 104.797 135.636 104.825C135.37 104.714 135.878 103.518 136.104 103.332C136.684 103.314 137.258 103.224 137.816 103.064C138.72 102.841 138.828 102.549 138.941 101.205C139.016 100.047 139.016 95.9038 139.016 92.9541C139.016 88.9225 139.055 86.1994 139.016 84.8548C138.98 83.8099 138.602 83.4724 137.884 83.2875C137.319 83.1742 136.376 83.0624 135.621 82.9515C135.433 82.7642 136.014 81.6438 136.201 81.4951" fill="#373737"/>
<path d="M0.853586 104.855C0.756398 104.616 0.717058 104.358 0.738776 104.101C0.73031 103.925 0.770019 103.751 0.853586 103.597C1.34166 103.527 1.82526 103.428 2.30198 103.302C2.96966 103.136 3.22048 102.772 3.25934 101.92C3.36885 99.9078 3.37592 96.1312 3.33706 93.4773V93.3994C3.33706 93.1138 3.33706 92.7251 2.98379 92.4505C2.36288 92.0611 1.68879 91.7637 0.982528 91.5677C0.666354 91.4733 0.491487 91.3073 0.500319 91.113C0.509151 90.9186 0.708746 90.6889 1.1203 90.6078C2.21366 90.4969 5.07866 89.8124 6.20382 89.2931C6.31968 89.4442 6.3734 89.6338 6.35396 89.8234C6.35396 89.9398 6.3363 90.0634 6.32393 90.1908C6.29214 90.5654 6.25681 90.991 6.25681 91.4151C6.26373 91.467 6.28488 91.5158 6.3179 91.5559C6.35091 91.5961 6.39448 91.626 6.44368 91.6425C6.49287 91.659 6.54576 91.6622 6.59639 91.6504C6.647 91.6385 6.69334 91.6126 6.73019 91.5764C8.87275 89.8958 10.7928 89.297 11.7766 89.297C13.3963 89.297 14.6575 90.0705 15.6343 91.6645C15.6567 91.7031 15.6886 91.7353 15.727 91.7574C15.7653 91.7802 15.8088 91.7928 15.8533 91.7935C15.8938 91.7935 15.9335 91.7833 15.9692 91.7636C16.0049 91.7448 16.0354 91.7172 16.0582 91.6842C18.0277 90.1893 19.9795 89.297 21.2866 89.297C24.3742 89.297 26.2199 91.6094 26.2199 95.4813C26.2199 96.5946 26.2094 98.0061 26.1988 99.3225C26.19 100.478 26.1811 101.562 26.1811 102.311C26.1811 102.488 26.4248 102.996 26.7905 103.097C27.2427 103.318 27.8945 103.431 28.7193 103.573H28.7512C28.8129 103.795 28.6822 104.659 28.5568 104.836C28.3519 104.836 28.0693 104.818 27.716 104.8C27.0749 104.769 26.1952 104.725 25.1725 104.725C23.12 104.725 22.0478 104.763 21.0234 104.831C20.9457 104.574 20.9192 103.747 21.0128 103.574C21.437 103.507 21.857 103.416 22.2704 103.301C22.9239 103.085 23.113 102.788 23.1536 101.92C23.1695 101.304 23.2878 95.87 23.0777 94.5804C22.8833 93.2428 21.8765 91.6771 19.6739 91.6771C18.8561 91.6771 17.5366 92.0178 16.279 92.9722C16.201 93.0603 16.1571 93.1744 16.1554 93.2916V93.3184C16.3037 94.0147 16.3037 94.8275 16.3037 96.0557C16.3037 96.7622 16.3037 97.4994 16.2949 98.2359C16.2861 99.7347 16.279 101.148 16.3037 102.217C16.3037 102.945 16.7435 103.12 17.0986 103.26C17.2911 103.302 17.443 103.339 17.5967 103.374C17.8917 103.447 18.199 103.521 18.6565 103.594C18.7242 103.904 18.7182 104.226 18.6389 104.533C18.6201 104.649 18.5747 104.758 18.5064 104.854C17.3653 104.814 16.1943 104.781 14.5038 104.781C13.9916 104.781 13.1561 104.803 12.4178 104.821C11.819 104.838 11.2538 104.854 10.9323 104.855C10.8453 104.65 10.8067 104.427 10.8192 104.205C10.8012 103.995 10.8422 103.784 10.9376 103.597L11.3915 103.514C11.7872 103.444 12.1299 103.383 12.4514 103.302C13.0095 103.125 13.2197 102.821 13.2604 102.109C13.3699 100.448 13.4546 95.6615 13.2197 94.4632C12.8205 92.541 11.7272 91.5654 9.9679 91.5654C8.93814 91.5654 7.63632 92.0619 6.57299 92.8589C6.47071 92.9588 6.39013 93.0784 6.33632 93.2106C6.28252 93.3428 6.25665 93.4852 6.26034 93.6276C6.26034 94.1988 6.26034 94.877 6.26034 95.6048C6.26034 98.0085 6.24445 101 6.30274 102.293C6.33806 102.692 6.47937 103.166 7.22653 103.339C7.3908 103.387 7.67342 103.433 8.00195 103.488C8.19095 103.519 8.3976 103.553 8.6113 103.592C8.67928 104.015 8.64474 104.448 8.51067 104.855C8.18212 104.855 7.77763 104.834 7.31485 104.814C6.60831 104.783 5.72514 104.744 4.72716 104.744C3.54725 104.744 2.7259 104.783 2.06706 104.814C1.62371 104.836 1.24042 104.854 0.85712 104.855" fill="#373737"/>
<path d="M38.7327 90.8942C38.0952 90.8809 37.4681 91.0571 36.9311 91.4009C35.6204 92.198 34.9527 93.7904 34.9527 96.1296C34.9527 100.508 37.1448 103.567 40.2835 103.567C41.1251 103.594 41.946 103.303 42.5833 102.753C43.5477 101.966 44.06 100.358 44.06 98.1068C44.06 93.7936 41.9174 90.8942 38.7291 90.8942H38.7327ZM39.3332 105.191C33.6633 105.191 31.6444 101.03 31.6444 97.1367C31.6444 94.4175 32.7554 92.2916 34.9475 90.8163C36.4827 89.8659 38.245 89.3442 40.0504 89.3073C44.3762 89.3073 47.3984 92.419 47.3984 96.8771C47.3984 99.9063 46.192 102.298 43.908 103.793C42.8111 104.465 40.9053 105.191 39.3332 105.191Z" fill="#373737"/>
<path d="M96.4568 90.8942C95.8179 90.8793 95.1893 91.0563 94.6511 91.4009C93.3411 92.198 92.6731 93.7904 92.6731 96.1296C92.6731 100.508 94.8651 103.567 98.0036 103.567C98.8479 103.596 99.6717 103.304 100.311 102.753C101.275 101.966 101.786 100.358 101.786 98.1068C101.786 93.7936 99.6449 90.8942 96.4568 90.8942ZM97.0603 105.191C91.3906 105.191 89.3716 101.03 89.3716 97.1391C89.3716 94.416 90.4826 92.2916 92.6762 90.8163C94.2113 89.8651 95.9729 89.3434 97.7778 89.3073C102.104 89.3073 105.126 92.4206 105.126 96.8755C105.126 99.9078 103.92 102.298 101.636 103.791C100.539 104.465 98.6323 105.191 97.0603 105.191Z" fill="#373737"/>
<path d="M77.366 90.7455C75.6191 90.7455 74.4887 92.1256 74.4887 94.2617C74.4887 96.3987 75.4619 98.9377 78.198 98.9377C78.6678 98.9377 79.5193 98.7292 79.941 98.2642C80.5776 97.6796 81.0009 96.4711 81.0009 95.1949C81.0009 92.4088 79.6444 90.7455 77.3748 90.7455H77.366ZM77.1488 105.489C76.6552 105.484 76.1686 105.606 75.7357 105.843C74.3526 106.726 73.7115 107.61 73.7115 108.637C73.7115 109.598 74.0842 110.363 74.8861 111.042C75.8575 111.865 77.1682 112.266 78.8903 112.266C82.2802 112.266 83.7987 110.442 83.7987 108.637C83.7987 107.379 83.1685 106.536 81.8703 106.058C80.8703 105.693 79.1991 105.492 77.154 105.492L77.1488 105.489ZM77.3802 114.15C75.3453 114.15 73.8793 113.72 72.6269 112.756C71.4082 111.815 70.8606 110.42 70.8606 109.455C70.8738 108.833 71.1108 108.237 71.5282 107.776C71.8815 107.373 72.7029 106.618 74.6017 105.313C74.6312 105.301 74.6562 105.279 74.6738 105.253C74.6914 105.226 74.7007 105.194 74.7006 105.163C74.7012 105.127 74.6896 105.092 74.6678 105.064C74.6459 105.035 74.6152 105.016 74.5805 105.007C73.0173 104.408 72.5457 103.417 72.4026 102.887C72.4026 102.867 72.4026 102.837 72.3867 102.804C72.3425 102.596 72.3002 102.397 72.5845 102.194C72.8036 102.038 73.1533 101.83 73.5277 101.609C74.0563 101.316 74.5634 100.987 75.045 100.621C75.0709 100.594 75.0901 100.56 75.1011 100.524C75.1121 100.488 75.1146 100.449 75.1085 100.411C75.1024 100.374 75.0877 100.338 75.0657 100.308C75.0437 100.276 75.0149 100.251 74.9814 100.233C72.6675 99.4554 71.5017 97.7363 71.5017 95.1083C71.4946 94.2893 71.6852 93.4805 72.0573 92.7503C72.4294 92.0202 72.9719 91.3907 73.639 90.9155C74.5699 90.1782 76.9067 89.2931 78.4205 89.2931H78.5088C80.0646 89.3301 80.9426 89.6574 82.1583 90.1059C82.8491 90.3561 83.5816 90.4725 84.3165 90.4489C85.6044 90.4489 86.1678 90.0406 86.6517 89.5653C86.7304 89.7793 86.7721 90.0051 86.7752 90.2333C86.8051 90.7762 86.6572 91.3152 86.3551 91.7668C86.0915 92.1327 85.4715 92.3978 84.905 92.3978C84.8468 92.3978 84.7901 92.3978 84.728 92.3892C84.4298 92.3679 84.1339 92.3191 83.8452 92.242L83.7004 92.294C83.654 92.3608 83.6839 92.4348 83.7216 92.53C83.7303 92.5489 83.7374 92.5686 83.7429 92.589C83.8459 93.0603 83.916 93.5387 83.953 94.0202C83.953 96.7677 82.8695 97.9637 81.6988 98.8512C80.5666 99.7009 79.2219 100.222 77.8129 100.356C77.7828 100.356 77.6363 100.369 77.3607 100.393C77.1841 100.41 76.9544 100.431 76.9209 100.431H76.8873C76.6329 100.501 75.9688 100.817 75.9688 101.406C75.9688 101.894 76.2691 102.5 77.7051 102.61L78.6342 102.675C80.528 102.807 82.8931 102.972 84.0057 103.348C84.7437 103.607 85.381 104.094 85.8279 104.736C86.274 105.38 86.5061 106.147 86.4912 106.93C86.4912 109.395 84.739 111.713 81.805 113.13C80.421 113.791 78.9063 114.132 77.3731 114.125" fill="#373737"/>
<path d="M68.7004 103.54C67.8702 103.43 67.2643 103.316 66.549 102.98C66.4086 102.835 66.3161 102.65 66.284 102.45C66.208 101.293 66.208 97.9337 66.208 95.7354C66.208 93.9423 65.9078 92.3781 65.1483 91.2561C64.2421 89.9862 62.9598 89.2404 61.2994 89.2404C59.8281 89.2404 57.8657 90.2475 56.2441 91.6291C56.2053 91.6661 55.9562 91.9029 55.9615 91.5355C55.9669 91.168 56.0234 90.4221 56.0587 89.9453C56.0744 89.8187 56.0602 89.6896 56.0172 89.5692C55.9743 89.4489 55.9038 89.3411 55.8114 89.2529C54.7517 89.7825 51.7789 90.4898 50.6785 90.5976C49.8765 90.7526 49.6734 91.5252 50.5301 91.792H50.5424C51.2282 91.9808 51.8827 92.2688 52.4854 92.6472C52.8245 92.9084 52.7875 93.2814 52.7875 93.5804C52.8245 96.08 52.8245 99.9251 52.7115 102.016C52.6744 102.837 52.4466 103.136 51.8424 103.286L51.8989 103.267C51.439 103.382 50.9724 103.47 50.5018 103.528C50.3128 103.714 50.3128 104.797 50.5018 105.021C50.8798 105.021 52.798 104.91 54.3878 104.91C56.5744 104.91 57.7067 105.021 58.2737 105.021C58.5015 104.76 58.5757 103.753 58.4256 103.528C57.9031 103.504 57.3842 103.43 56.8765 103.304C56.2742 103.156 56.1223 102.855 56.0852 102.186C56.011 100.429 56.011 96.6969 56.011 94.1579C56.011 93.4513 56.1983 93.1138 56.4243 92.921C57.1785 92.2491 58.4256 91.8022 59.519 91.8022C60.5788 91.8022 61.2853 92.1381 61.8152 92.5851C62.4324 93.124 62.8194 93.8793 62.8962 94.6953C63.0463 96.1084 63.0075 98.9518 63.0075 101.41C63.0075 102.754 62.8961 103.092 62.4051 103.24C62.1791 103.352 61.575 103.465 60.8579 103.539C60.6317 103.763 60.7059 104.807 60.8579 105.032C61.8381 105.032 62.9774 104.921 64.6307 104.921C66.7062 104.921 68.0274 105.032 68.5555 105.032C68.7816 104.77 68.8576 103.795 68.7075 103.539" fill="#373737"/>
</g>
<defs>
<clipPath id="clip0_4013_79">
<rect width="155" height="115" fill="white" transform="translate(0.5)"/>
</clipPath>
</defs>
</svg>
