<svg width="390" height="2543" viewBox="0 0 390 2543" fill="none" xmlns="http://www.w3.org/2000/svg">
<circle cx="340.532" cy="1405.24" r="133.058" transform="rotate(-118.864 340.532 1405.24)" fill="#FCE792"/>
<circle cx="271.746" cy="1229.03" r="157.877" transform="rotate(-118.864 271.746 1229.03)" fill="#B6CCFE"/>
<circle cx="111.461" cy="1041.07" r="177.87" transform="rotate(-118.864 111.461 1041.07)" fill="#C1D3FE"/>
<circle cx="220.892" cy="1076.79" r="128.921" transform="rotate(-118.864 220.892 1076.79)" fill="#ABC4FF"/>
<circle cx="210.686" cy="1902.74" r="133.058" transform="rotate(107.542 210.686 1902.74)" fill="#FCE792"/>
<circle cx="130.5" cy="2074.06" r="157.877" transform="rotate(107.542 130.5 2074.06)" fill="#B6CCFE"/>
<circle cx="104.893" cy="2319.76" r="177.87" transform="rotate(107.542 104.893 2319.76)" fill="#C1D3FE"/>
<circle cx="55.3064" cy="2215.87" r="128.921" transform="rotate(107.542 55.3064 2215.87)" fill="#ABC4FF"/>
<ellipse cx="117.662" cy="516.678" rx="111.419" ry="110.775" transform="rotate(-56.8686 117.662 516.678)" fill="#FCE792"/>
<ellipse cx="220.106" cy="397.425" rx="132.028" ry="131.384" transform="rotate(-56.8686 220.106 397.425)" fill="#9188F7"/>
<ellipse cx="296.119" cy="205.547" rx="148.773" ry="148.129" transform="rotate(-56.8686 296.119 205.547)" fill="#C1D3FE"/>
<circle cx="312.575" cy="299.347" r="107.554" transform="rotate(-56.8686 312.575 299.347)" fill="#ABC4FF"/>
</svg>
